<svg width="154" height="129" viewBox="0 0 154 129" fill="none" xmlns="http://www.w3.org/2000/svg">
<path d="M87.9516 58.0973C85.9486 59.82 83.4881 60.6598 81.0362 60.6598C78.0317 60.6598 75.0445 59.3872 72.9466 56.9199C69.1219 52.4442 69.6486 45.7004 74.1207 41.874L78.6447 37.9957L74.1207 34.1173C69.6572 30.2909 69.1306 23.5558 72.9552 19.0714C76.7798 14.5957 83.4967 14.0677 87.9602 17.8941L109 35.9353V12.9336C109 10.6914 108.715 10.198 107.403 9.01196C100.79 3.39355 92.2338 0 82.901 0C61.9648 0 45 17.011 45 37.9957C45 58.9803 61.9648 76 82.901 76C92.1906 76 100.703 72.6324 107.291 67.0659C108.689 65.8193 108.991 65.3519 108.991 63.0577V40.056L87.9516 58.0973Z" fill="#009FE3"/>
<path d="M11.104 105.472H32.896V107.296H25.144V109.888H20.728V107.296H11.104V105.472ZM11.92 104.2L15.184 98.464H12.088V96.616H20.272V95.032H24.448V96.616H32.68V98.464H30.856V104.2H26.248V98.464H21.4C20.392 98.464 19.792 98.872 19.264 99.76L16.624 104.2H11.92ZM12.304 112.528V108.4H16.672V112.144H31.984V113.968H13.744C12.808 113.968 12.304 113.464 12.304 112.528ZM36.52 108.16H40.888V112.144H56.896V113.968H37.96C37.024 113.968 36.52 113.464 36.52 112.528V108.16ZM35.104 107.152L37.864 98.032L37.888 97.984H35.416V96.16H41.512V95.032H45.688V96.16H51.232V97.984H49.912V100.48H52.456V95.632H56.824V108.712H52.456V102.424H49.912V107.152H45.688V98.008H42.808C42.376 98.008 42.112 98.224 41.992 98.632L39.328 107.152H35.104ZM76.216 95.632H80.584V113.968H76.216V95.632ZM59.776 113.728L62.56 97.768C62.776 96.544 63.688 95.872 65.152 95.872H74.488V113.752H70.312V97.792H67.36C66.952 97.792 66.592 98.008 66.544 98.392L64.144 113.728H59.776ZM96.496 95.632H100.312V113.968H96.496V105.208L94.384 105.232V113.776H90.736V98.392H89.968C89.536 98.392 89.224 98.608 89.152 99.016L86.44 113.776H82.768L85.576 98.416V98.368H83.416V96.544H87.616V95.032H91.792V96.544H95.584V98.368H94.384V103.048L96.496 103.024V95.632ZM101.32 113.968V95.632H105.208V113.968H101.32ZM113.872 97.36C112.936 97.36 112.432 97.864 112.432 98.8V100.84C112.432 101.776 112.936 102.28 113.872 102.28H122.584C123.52 102.28 124.024 101.776 124.024 100.84V98.8C124.024 97.864 123.52 97.36 122.584 97.36H113.872ZM107.104 106.792V104.968H128.896V106.792H124.288V108.04H127.672V113.968H123.208V109.888H107.968V108.04H112.312V106.792H107.104ZM108.016 99.928V99.712C108.016 97.072 109.456 95.632 112.096 95.632H124.336C126.976 95.632 128.416 97.072 128.416 99.712V99.928C128.416 102.568 126.976 104.008 124.336 104.008H112.096C109.456 104.008 108.016 102.568 108.016 99.928ZM116.728 108.04H119.872V106.792H116.728V108.04ZM137.824 100.72C136.912 100.72 136.384 101.224 136.384 102.16L136.408 105.376C136.408 106.312 136.912 106.816 137.848 106.816H140.872C141.808 106.816 142.312 106.312 142.312 105.376L142.288 102.16C142.288 101.224 141.808 100.72 140.848 100.72H137.824ZM131.488 113.752V111.928H137.152L137.176 108.544H136.072C133.432 108.544 131.992 107.104 131.992 104.464V103.072C131.992 100.432 133.432 98.992 136.072 98.992H142.624C145.264 98.992 146.704 100.432 146.704 103.072V104.464C146.704 107.104 145.264 108.544 142.624 108.544H141.544L141.52 111.928H147.208V113.752H131.488ZM131.752 98.104V96.256H137.176V94.768H141.544V96.256H146.968V98.104H131.752ZM148.456 113.968V95.632H152.824V113.968H148.456Z" fill="#1B1D1F"/>
<path d="M3.92876 124.234C3.85844 123.766 3.49809 123.481 3.00298 123.479C2.3438 123.481 1.90727 123.985 1.90727 124.879C1.90727 125.793 2.34966 126.276 2.99712 126.279C3.48051 126.276 3.8438 126.013 3.92876 125.553L4.81938 125.559C4.7227 126.344 4.06352 127.059 2.9854 127.059C1.85161 127.059 1.01079 126.259 1.01079 124.879C1.01079 123.493 1.86626 122.699 2.9854 122.699C3.96391 122.699 4.70219 123.259 4.81938 124.234H3.92876ZM7.11462 127V122.758H7.99352V124.516H9.83337V122.758H10.7181V127H9.83337V125.242H7.99352V127H7.11462ZM15.738 122.758H16.6227V125.512C16.6227 126.44 15.9167 127.062 14.8649 127.059C13.8102 127.062 13.113 126.44 13.113 125.512V122.758H13.9919V125.441C13.9948 125.931 14.3405 126.282 14.8649 126.285C15.3952 126.282 15.7409 125.931 15.738 125.441V122.758ZM22.5566 122.758V127H21.7949L19.9316 124.305H19.8965V127H19.0176V122.758H19.791L21.6426 125.453H21.6836V122.758H22.5566ZM27.7874 124.234C27.7171 123.766 27.3568 123.481 26.8616 123.479C26.2025 123.481 25.7659 123.985 25.7659 124.879C25.7659 125.793 26.2083 126.276 26.8558 126.279C27.3392 126.276 27.7025 126.013 27.7874 125.553L28.6781 125.559C28.5814 126.344 27.9222 127.059 26.8441 127.059C25.7103 127.059 24.8695 126.259 24.8695 124.879C24.8695 123.493 25.7249 122.699 26.8441 122.699C27.8226 122.699 28.5609 123.259 28.6781 124.234H27.7874ZM30.9733 127V122.758H31.8522V124.516H33.692V122.758H34.5768V127H33.692V125.242H31.8522V127H30.9733ZM36.9716 127V122.758H39.8193V123.484H37.8506V124.516H39.6728V125.242H37.8506V126.273H39.8252V127H36.9716ZM46.0696 124.879C46.0696 126.265 45.2112 127.059 44.0891 127.059C42.9583 127.059 42.1028 126.259 42.1028 124.879C42.1028 123.493 42.9583 122.699 44.0891 122.699C45.2112 122.699 46.0696 123.493 46.0696 124.879ZM42.9993 124.879C42.9993 125.784 43.43 126.276 44.0891 126.279C44.7425 126.276 45.1761 125.784 45.1731 124.879C45.1761 123.971 44.7425 123.481 44.0891 123.479C43.43 123.481 42.9993 123.971 42.9993 124.879ZM51.9215 122.758V127H51.1598L49.2965 124.305H49.2613V127H48.3824V122.758H49.1559L51.0074 125.453H51.0484V122.758H51.9215ZM60.2151 124.234C60.1448 123.766 59.7844 123.481 59.2893 123.479C58.6301 123.481 58.1936 123.985 58.1936 124.879C58.1936 125.793 58.636 126.276 59.2834 126.279C59.7668 126.276 60.1301 126.013 60.2151 125.553L61.1057 125.559C61.009 126.344 60.3498 127.059 59.2717 127.059C58.1379 127.059 57.2971 126.259 57.2971 124.879C57.2971 123.493 58.1526 122.699 59.2717 122.699C60.2502 122.699 60.9885 123.259 61.1057 124.234H60.2151ZM64.2799 122.758V127H63.4009V122.758H64.2799ZM66.5106 123.484V122.758H69.9852V123.484H68.6845V127H67.8114V123.484H66.5106ZM71.9523 122.758H72.9426L73.9211 124.586H73.9621L74.9348 122.758H75.925L74.3781 125.488V127H73.4992V125.488L71.9523 122.758ZM83.4276 123.971C83.3924 123.634 83.1258 123.438 82.6952 123.438C82.2498 123.438 82.0008 123.643 81.9979 123.924C81.995 124.231 82.3114 124.369 82.6776 124.451L83.0584 124.545C83.785 124.712 84.327 125.081 84.3299 125.787C84.327 126.563 83.7235 127.062 82.6893 127.059C81.6639 127.062 81.0106 126.587 80.9842 125.676H81.8397C81.869 126.104 82.2088 126.32 82.6776 126.32C83.1405 126.32 83.4393 126.104 83.4393 125.787C83.4393 125.497 83.1756 125.362 82.7127 125.248L82.2498 125.137C81.535 124.961 81.0956 124.604 81.0956 123.982C81.0926 123.212 81.7723 122.699 82.701 122.699C83.6414 122.699 84.2596 123.221 84.2713 123.971H83.4276ZM86.5841 127V122.758H88.2482C89.2121 122.758 89.7658 123.353 89.7658 124.188C89.7658 125.034 89.2033 125.617 88.2248 125.617H87.4631V127H86.5841ZM87.4631 124.908H88.0841C88.6056 124.908 88.8605 124.615 88.8576 124.188C88.8605 123.766 88.6056 123.481 88.0841 123.479H87.4631V124.908ZM95.8872 124.879C95.8872 126.265 95.0288 127.059 93.9067 127.059C92.7759 127.059 91.9204 126.259 91.9204 124.879C91.9204 123.493 92.7759 122.699 93.9067 122.699C95.0288 122.699 95.8872 123.493 95.8872 124.879ZM92.8169 124.879C92.8169 125.784 93.2475 126.276 93.9067 126.279C94.56 126.276 94.9936 125.784 94.9907 124.879C94.9936 123.971 94.56 123.481 93.9067 123.479C93.2475 123.481 92.8169 123.971 92.8169 124.879ZM98.2 127V122.758H99.8641C100.828 122.758 101.382 123.3 101.382 124.141C101.382 124.721 101.115 125.143 100.632 125.351L101.534 127H100.561L99.7498 125.494H99.0789V127H98.2ZM99.0789 124.779H99.7C100.221 124.779 100.476 124.565 100.473 124.141C100.476 123.713 100.221 123.481 99.7 123.479H99.0789V124.779ZM103.507 123.484V122.758H106.982V123.484H105.681V127H104.808V123.484H103.507ZM111.509 123.971C111.474 123.634 111.207 123.438 110.777 123.438C110.331 123.438 110.082 123.643 110.08 123.924C110.077 124.231 110.393 124.369 110.759 124.451L111.14 124.545C111.867 124.712 112.409 125.081 112.412 125.787C112.409 126.563 111.805 127.062 110.771 127.059C109.746 127.062 109.092 126.587 109.066 125.676H109.921C109.951 126.104 110.29 126.32 110.759 126.32C111.222 126.32 111.521 126.104 111.521 125.787C111.521 125.497 111.257 125.362 110.794 125.248L110.331 125.137C109.617 124.961 109.177 124.604 109.177 123.982C109.174 123.212 109.854 122.699 110.783 122.699C111.723 122.699 112.341 123.221 112.353 123.971H111.509ZM120.565 124.234C120.494 123.766 120.134 123.481 119.639 123.479C118.98 123.481 118.543 123.985 118.543 124.879C118.543 125.793 118.985 126.276 119.633 126.279C120.116 126.276 120.48 126.013 120.565 125.553L121.455 125.559C121.358 126.344 120.699 127.059 119.621 127.059C118.487 127.059 117.647 126.259 117.647 124.879C117.647 123.493 118.502 122.699 119.621 122.699C120.6 122.699 121.338 123.259 121.455 124.234H120.565ZM127.635 124.879C127.635 126.265 126.777 127.059 125.655 127.059C124.524 127.059 123.668 126.259 123.668 124.879C123.668 123.493 124.524 122.699 125.655 122.699C126.777 122.699 127.635 123.493 127.635 124.879ZM124.565 124.879C124.565 125.784 124.996 126.276 125.655 126.279C126.308 126.276 126.742 125.784 126.739 124.879C126.742 123.971 126.308 123.481 125.655 123.479C124.996 123.481 124.565 123.971 124.565 124.879ZM132.573 122.758H133.458V125.512C133.458 126.44 132.752 127.062 131.7 127.059C130.645 127.062 129.948 126.44 129.948 125.512V122.758H130.827V125.441C130.83 125.931 131.176 126.282 131.7 126.285C132.23 126.282 132.576 125.931 132.573 125.441V122.758ZM139.392 122.758V127H138.63L136.767 124.305H136.731V127H135.853V122.758H136.626L138.478 125.453H138.519V122.758H139.392ZM144.622 124.234C144.552 123.766 144.192 123.481 143.697 123.479C143.037 123.481 142.601 123.985 142.601 124.879C142.601 125.793 143.043 126.276 143.691 126.279C144.174 126.276 144.537 126.013 144.622 125.553L145.513 125.559C145.416 126.344 144.757 127.059 143.679 127.059C142.545 127.059 141.704 126.259 141.704 124.879C141.704 123.493 142.56 122.699 143.679 122.699C144.658 122.699 145.396 123.259 145.513 124.234H144.622ZM148.687 122.758V127H147.808V122.758H148.687ZM151.082 127V122.758H151.961V126.273H153.789V127H151.082Z" fill="#9EA4AA"/>
</svg>
