<svg width="192" height="184" viewBox="0 0 192 184" fill="none" xmlns="http://www.w3.org/2000/svg">
<path d="M158.125 93.2614C154.902 96.0269 150.942 97.3749 146.996 97.3749C142.16 97.3749 137.353 95.332 133.977 91.3715C127.821 84.1868 128.669 73.3612 135.866 67.2188L143.147 60.993L135.866 54.7673C128.683 48.6249 127.835 37.8132 133.99 30.6146C140.146 23.43 150.956 22.5823 158.139 28.7247L192 57.6856V20.7618C192 17.1625 191.541 16.3704 189.43 14.4666C178.786 5.44755 165.017 0 149.997 0C116.303 0 89 27.3072 89 60.993C89 94.6789 116.303 122 149.997 122C164.947 122 178.647 116.594 189.249 107.659C191.5 105.657 191.986 104.907 191.986 101.224V64.3005L158.125 93.2614Z" fill="#009FE3"/>
<path d="M1.472 156.296H30.528V158.728H20.192V162.184H14.304V158.728H1.472V156.296ZM2.56 154.6L6.912 146.952H2.784V144.488H13.696V142.376H19.264V144.488H30.24V146.952H27.808V154.6H21.664V146.952H15.2C13.856 146.952 13.056 147.496 12.352 148.68L8.832 154.6H2.56ZM3.072 165.704V160.2H8.896V165.192H29.312V167.624H4.992C3.744 167.624 3.072 166.952 3.072 165.704ZM35.36 159.88H41.184V165.192H62.528V167.624H37.28C36.032 167.624 35.36 166.952 35.36 165.704V159.88ZM33.472 158.536L37.152 146.376L37.184 146.312H33.888V143.88H42.016V142.376H47.584V143.88H54.976V146.312H53.216V149.64H56.608V143.176H62.432V160.616H56.608V152.232H53.216V158.536H47.584V146.344H43.744C43.168 146.344 42.816 146.632 42.656 147.176L39.104 158.536H33.472ZM88.288 143.176H94.112V167.624H88.288V143.176ZM66.368 167.304L70.08 146.024C70.368 144.392 71.584 143.496 73.536 143.496H85.984V167.336H80.416V146.056H76.48C75.936 146.056 75.456 146.344 75.392 146.856L72.192 167.304H66.368ZM115.328 143.176H120.416V167.624H115.328V155.944L112.512 155.976V167.368H107.648V146.856H106.624C106.048 146.856 105.632 147.144 105.536 147.688L101.92 167.368H97.024L100.768 146.888V146.824H97.888V144.392H103.488V142.376H109.056V144.392H114.112V146.824H112.512V153.064L115.328 153.032V143.176ZM121.76 167.624V143.176H126.944V167.624H121.76ZM138.496 145.48C137.248 145.48 136.576 146.152 136.576 147.4V150.12C136.576 151.368 137.248 152.04 138.496 152.04H150.112C151.36 152.04 152.032 151.368 152.032 150.12V147.4C152.032 146.152 151.36 145.48 150.112 145.48H138.496ZM129.472 158.056V155.624H158.528V158.056H152.384V159.72H156.896V167.624H150.944V162.184H130.624V159.72H136.416V158.056H129.472ZM130.688 148.904V148.616C130.688 145.096 132.608 143.176 136.128 143.176H152.448C155.968 143.176 157.888 145.096 157.888 148.616V148.904C157.888 152.424 155.968 154.344 152.448 154.344H136.128C132.608 154.344 130.688 152.424 130.688 148.904ZM142.304 159.72H146.496V158.056H142.304V159.72ZM170.432 149.96C169.216 149.96 168.512 150.632 168.512 151.88L168.544 156.168C168.544 157.416 169.216 158.088 170.464 158.088H174.496C175.744 158.088 176.416 157.416 176.416 156.168L176.384 151.88C176.384 150.632 175.744 149.96 174.464 149.96H170.432ZM161.984 167.336V164.904H169.536L169.568 160.392H168.096C164.576 160.392 162.656 158.472 162.656 154.952V153.096C162.656 149.576 164.576 147.656 168.096 147.656H176.832C180.352 147.656 182.272 149.576 182.272 153.096V154.952C182.272 158.472 180.352 160.392 176.832 160.392H175.392L175.36 164.904H182.944V167.336H161.984ZM162.336 146.472V144.008H169.568V142.024H175.392V144.008H182.624V146.472H162.336ZM184.608 167.624V143.176H190.432V167.624H184.608Z" fill="#1B1D1F"/>
<path d="M41.9288 179.234C41.8584 178.766 41.4981 178.481 41.003 178.479C40.3438 178.481 39.9073 178.985 39.9073 179.879C39.9073 180.793 40.3497 181.276 40.9971 181.279C41.4805 181.276 41.8438 181.013 41.9288 180.553L42.8194 180.559C42.7227 181.344 42.0635 182.059 40.9854 182.059C39.8516 182.059 39.0108 181.259 39.0108 179.879C39.0108 178.493 39.8663 177.699 40.9854 177.699C41.9639 177.699 42.7022 178.259 42.8194 179.234H41.9288ZM45.1146 182V177.758H45.9935V179.516H47.8334V177.758H48.7181V182H47.8334V180.242H45.9935V182H45.1146ZM53.738 177.758H54.6227V180.512C54.6227 181.44 53.9167 182.062 52.8649 182.059C51.8102 182.062 51.113 181.44 51.113 180.512V177.758H51.9919V180.441C51.9948 180.931 52.3405 181.282 52.8649 181.285C53.3952 181.282 53.7409 180.931 53.738 180.441V177.758ZM60.5566 177.758V182H59.7949L57.9316 179.305H57.8965V182H57.0176V177.758H57.791L59.6426 180.453H59.6836V177.758H60.5566ZM65.7874 179.234C65.7171 178.766 65.3568 178.481 64.8616 178.479C64.2025 178.481 63.7659 178.985 63.7659 179.879C63.7659 180.793 64.2083 181.276 64.8558 181.279C65.3392 181.276 65.7025 181.013 65.7874 180.553L66.6781 180.559C66.5814 181.344 65.9222 182.059 64.8441 182.059C63.7103 182.059 62.8695 181.259 62.8695 179.879C62.8695 178.493 63.7249 177.699 64.8441 177.699C65.8226 177.699 66.5609 178.259 66.6781 179.234H65.7874ZM68.9733 182V177.758H69.8522V179.516H71.692V177.758H72.5768V182H71.692V180.242H69.8522V182H68.9733ZM74.9716 182V177.758H77.8193V178.484H75.8506V179.516H77.6728V180.242H75.8506V181.273H77.8252V182H74.9716ZM84.0696 179.879C84.0696 181.265 83.2112 182.059 82.0891 182.059C80.9583 182.059 80.1028 181.259 80.1028 179.879C80.1028 178.493 80.9583 177.699 82.0891 177.699C83.2112 177.699 84.0696 178.493 84.0696 179.879ZM80.9993 179.879C80.9993 180.784 81.43 181.276 82.0891 181.279C82.7425 181.276 83.1761 180.784 83.1731 179.879C83.1761 178.971 82.7425 178.481 82.0891 178.479C81.43 178.481 80.9993 178.971 80.9993 179.879ZM89.9215 177.758V182H89.1598L87.2965 179.305H87.2613V182H86.3824V177.758H87.1559L89.0074 180.453H89.0484V177.758H89.9215ZM98.2151 179.234C98.1448 178.766 97.7844 178.481 97.2893 178.479C96.6301 178.481 96.1936 178.985 96.1936 179.879C96.1936 180.793 96.636 181.276 97.2834 181.279C97.7668 181.276 98.1301 181.013 98.2151 180.553L99.1057 180.559C99.009 181.344 98.3499 182.059 97.2717 182.059C96.1379 182.059 95.2971 181.259 95.2971 179.879C95.2971 178.493 96.1526 177.699 97.2717 177.699C98.2502 177.699 98.9885 178.259 99.1057 179.234H98.2151ZM102.28 177.758V182H101.401V177.758H102.28ZM104.511 178.484V177.758H107.985V178.484H106.684V182H105.811V178.484H104.511ZM109.952 177.758H110.943L111.921 179.586H111.962L112.935 177.758H113.925L112.378 180.488V182H111.499V180.488L109.952 177.758ZM121.428 178.971C121.392 178.634 121.126 178.438 120.695 178.438C120.25 178.438 120.001 178.643 119.998 178.924C119.995 179.231 120.311 179.369 120.678 179.451L121.058 179.545C121.785 179.712 122.327 180.081 122.33 180.787C122.327 181.563 121.723 182.062 120.689 182.059C119.664 182.062 119.011 181.587 118.984 180.676H119.84C119.869 181.104 120.209 181.32 120.678 181.32C121.14 181.32 121.439 181.104 121.439 180.787C121.439 180.497 121.176 180.362 120.713 180.248L120.25 180.137C119.535 179.961 119.096 179.604 119.096 178.982C119.093 178.212 119.772 177.699 120.701 177.699C121.641 177.699 122.26 178.221 122.271 178.971H121.428ZM124.584 182V177.758H126.248C127.212 177.758 127.766 178.353 127.766 179.188C127.766 180.034 127.203 180.617 126.225 180.617H125.463V182H124.584ZM125.463 179.908H126.084C126.606 179.908 126.861 179.615 126.858 179.188C126.861 178.766 126.606 178.481 126.084 178.479H125.463V179.908ZM133.887 179.879C133.887 181.265 133.029 182.059 131.907 182.059C130.776 182.059 129.92 181.259 129.92 179.879C129.92 178.493 130.776 177.699 131.907 177.699C133.029 177.699 133.887 178.493 133.887 179.879ZM130.817 179.879C130.817 180.784 131.248 181.276 131.907 181.279C132.56 181.276 132.994 180.784 132.991 179.879C132.994 178.971 132.56 178.481 131.907 178.479C131.248 178.481 130.817 178.971 130.817 179.879ZM136.2 182V177.758H137.864C138.828 177.758 139.382 178.3 139.382 179.141C139.382 179.721 139.115 180.143 138.632 180.351L139.534 182H138.561L137.75 180.494H137.079V182H136.2ZM137.079 179.779H137.7C138.221 179.779 138.476 179.565 138.473 179.141C138.476 178.713 138.221 178.481 137.7 178.479H137.079V179.779ZM141.507 178.484V177.758H144.982V178.484H143.681V182H142.808V178.484H141.507ZM149.509 178.971C149.474 178.634 149.207 178.438 148.777 178.438C148.331 178.438 148.082 178.643 148.08 178.924C148.077 179.231 148.393 179.369 148.759 179.451L149.14 179.545C149.867 179.712 150.409 180.081 150.412 180.787C150.409 181.563 149.805 182.062 148.771 182.059C147.746 182.062 147.092 181.587 147.066 180.676H147.921C147.951 181.104 148.29 181.32 148.759 181.32C149.222 181.32 149.521 181.104 149.521 180.787C149.521 180.497 149.257 180.362 148.794 180.248L148.331 180.137C147.617 179.961 147.177 179.604 147.177 178.982C147.174 178.212 147.854 177.699 148.783 177.699C149.723 177.699 150.341 178.221 150.353 178.971H149.509ZM158.565 179.234C158.494 178.766 158.134 178.481 157.639 178.479C156.98 178.481 156.543 178.985 156.543 179.879C156.543 180.793 156.985 181.276 157.633 181.279C158.116 181.276 158.48 181.013 158.565 180.553L159.455 180.559C159.358 181.344 158.699 182.059 157.621 182.059C156.487 182.059 155.647 181.259 155.647 179.879C155.647 178.493 156.502 177.699 157.621 177.699C158.6 177.699 159.338 178.259 159.455 179.234H158.565ZM165.635 179.879C165.635 181.265 164.777 182.059 163.655 182.059C162.524 182.059 161.668 181.259 161.668 179.879C161.668 178.493 162.524 177.699 163.655 177.699C164.777 177.699 165.635 178.493 165.635 179.879ZM162.565 179.879C162.565 180.784 162.996 181.276 163.655 181.279C164.308 181.276 164.742 180.784 164.739 179.879C164.742 178.971 164.308 178.481 163.655 178.479C162.996 178.481 162.565 178.971 162.565 179.879ZM170.573 177.758H171.458V180.512C171.458 181.44 170.752 182.062 169.7 182.059C168.645 182.062 167.948 181.44 167.948 180.512V177.758H168.827V180.441C168.83 180.931 169.176 181.282 169.7 181.285C170.23 181.282 170.576 180.931 170.573 180.441V177.758ZM177.392 177.758V182H176.63L174.767 179.305H174.731V182H173.853V177.758H174.626L176.478 180.453H176.519V177.758H177.392ZM182.622 179.234C182.552 178.766 182.192 178.481 181.697 178.479C181.037 178.481 180.601 178.985 180.601 179.879C180.601 180.793 181.043 181.276 181.691 181.279C182.174 181.276 182.537 181.013 182.622 180.553L183.513 180.559C183.416 181.344 182.757 182.059 181.679 182.059C180.545 182.059 179.704 181.259 179.704 179.879C179.704 178.493 180.56 177.699 181.679 177.699C182.658 177.699 183.396 178.259 183.513 179.234H182.622ZM186.687 177.758V182H185.808V177.758H186.687ZM189.082 182V177.758H189.961V181.273H191.789V182H189.082Z" fill="#9EA4AA"/>
</svg>
