<svg width="24" height="24" viewBox="0 0 24 24" fill="none" xmlns="http://www.w3.org/2000/svg">
<path d="M17.0717 0H6.92657C3.10132 0 0 3.10132 0 6.92657V17.0717C0 20.897 3.10132 23.9983 6.92657 23.9983H17.0717C20.897 23.9983 23.9983 20.897 23.9983 17.0717V6.92657C24 3.10132 20.8987 0 17.0717 0ZM21.7891 17.2502C21.7891 19.789 19.7312 21.8486 17.1907 21.8486H6.80762C4.26878 21.8486 2.20916 19.7907 2.20916 17.2502V6.8671C2.20916 4.32826 4.26708 2.26864 6.80762 2.26864H17.1907C19.7295 2.26864 21.7891 4.32656 21.7891 6.8671V17.2502Z" fill="black"/>
<path d="M11.9999 5.83203C8.56038 5.83203 5.77344 8.62067 5.77344 12.0585C5.77344 15.4963 8.56208 18.2849 11.9999 18.2849C15.4394 18.2849 18.2263 15.4963 18.2263 12.0585C18.2263 8.62067 15.4394 5.83203 11.9999 5.83203ZM11.9999 16.0961C9.77032 16.0961 7.96391 14.288 7.96391 12.0602C7.96391 9.83062 9.77202 8.0242 11.9999 8.0242C14.2294 8.0242 16.0358 9.83231 16.0358 12.0602C16.0375 14.288 14.2294 16.0961 11.9999 16.0961Z" fill="black"/>
<path d="M18.4356 7.04703C19.2371 7.04703 19.8869 6.39728 19.8869 5.59578C19.8869 4.79428 19.2371 4.14453 18.4356 4.14453C17.6341 4.14453 16.9844 4.79428 16.9844 5.59578C16.9844 6.39728 17.6341 7.04703 18.4356 7.04703Z" fill="black"/>
</svg>
