<svg width="47" height="56" viewBox="0 0 47 56" fill="none" xmlns="http://www.w3.org/2000/svg">
<path d="M31.5468 42.4075C30.0757 43.665 28.2685 44.278 26.4676 44.278C24.2609 44.278 22.0669 43.349 20.526 41.5481C17.7169 38.2811 18.1038 33.3585 21.3884 30.5655L24.7111 27.7345L21.3884 24.9036C18.1101 22.1105 17.7233 17.1943 20.5324 13.921C23.3415 10.654 28.2748 10.2685 31.5532 13.0616L47.0063 26.2306V9.44074C47.0063 7.80409 46.7971 7.4439 45.8332 6.57819C40.976 2.47709 34.692 0 27.8373 0C12.4602 0 0 12.417 0 27.7345C0 43.0521 12.4602 55.4754 27.8373 55.4754C34.6603 55.4754 40.9126 53.0173 45.7508 48.9541C46.7781 48.0441 47 47.7029 47 46.0283V29.2385L31.5468 42.4075Z" fill="#009FE3"/>
</svg>
