<svg width="32" height="32" viewBox="0 0 32 32" fill="none" xmlns="http://www.w3.org/2000/svg">
<g clip-path="url(#clip0_40004853_5984)">
<path d="M10.011 24.5428C9.98859 24.5444 9.96939 24.5556 9.94699 24.5556H6.66459C6.64219 24.5556 6.62299 24.5444 6.60059 24.5428V26.226H10.011V24.5428Z" fill="#8595AA"/>
<path d="M24.6926 24.5556H21.2822V26.226H24.6926V24.5556Z" fill="#8595AA"/>
<path d="M28.4002 26.2264H3.6002C2.2746 26.2264 1.2002 27.3008 1.2002 28.6264V28.916C1.2002 29.1368 1.3794 29.316 1.6002 29.316H30.4002C30.621 29.316 30.8002 29.1368 30.8002 28.916V28.6264C30.8002 27.3008 29.7258 26.2264 28.4002 26.2264Z" fill="#ABB7C7"/>
<path d="M11.8995 20.3808C14.6123 21.9472 17.6899 22.772 20.8227 22.772H27.8283V18.7952C27.8283 16.824 26.2307 15.2264 24.2595 15.2264C23.2099 15.2264 22.2091 15.0296 21.2787 14.6856C21.2355 14.808 21.1723 14.9232 21.0747 15.0208L19.1027 16.992C18.9283 17.1664 18.6995 17.2536 18.4715 17.2536C18.2435 17.2536 18.0147 17.1664 17.8403 16.992C17.4915 16.6432 17.4915 16.0784 17.8403 15.7304L19.6755 13.896C19.2371 13.6192 18.8267 13.304 18.4459 12.9552C18.3779 13.0416 18.2947 13.1192 18.1939 13.1776L15.7787 14.572C15.6379 14.6536 15.4851 14.692 15.3331 14.692C15.0243 14.692 14.7251 14.532 14.5595 14.2456C14.3123 13.8192 14.4595 13.2736 14.8859 13.0272L17.2787 11.6456C17.0147 11.28 16.7795 10.8944 16.5747 10.4888C16.4907 10.5488 16.3979 10.6008 16.2923 10.6288L13.5995 11.3504C13.5219 11.3712 13.4443 11.3816 13.3675 11.3816C12.9739 11.3816 12.6139 11.1184 12.5067 10.72C12.3787 10.244 12.6611 9.7544 13.1371 9.6272L15.8299 8.9056C15.8747 8.8936 15.9179 8.9024 15.9619 8.8976C15.8371 8.4432 15.7403 7.9784 15.6907 7.4976C15.6747 7.4976 15.6619 7.5064 15.6459 7.5064H12.8579C12.3651 7.5064 11.9659 7.1072 11.9659 6.6144C11.9659 6.1216 12.3651 5.7224 12.8579 5.7224H15.6459V4.4712C15.6459 3.4856 14.8467 2.6864 13.8611 2.6864H7.55628C6.57068 2.6864 5.77148 3.4856 5.77148 4.4712V16.8448L11.8995 20.3824V20.3808Z" fill="#D0D6DE"/>
<path d="M27.8326 22.7676V23.6636C27.8326 24.1596 27.4326 24.5516 26.9366 24.5516H19.9286C16.8006 24.5516 13.7206 23.7276 11.0086 22.1676L10.8406 22.0796V23.6636C10.8406 24.1356 10.4726 24.5116 10.0086 24.5436C9.99256 24.5436 9.96855 24.5516 9.94455 24.5516H6.66455C6.64055 24.5516 6.62455 24.5436 6.60055 24.5436C6.13655 24.5116 5.76855 24.1356 5.76855 23.6636V16.8396L11.8966 20.3836C14.6166 21.9436 17.6886 22.7676 20.8246 22.7676H27.8326Z" fill="#4E5968"/>
<path d="M12.8578 5.7196C12.365 5.7196 11.9658 6.1188 11.9658 6.6116C11.9658 7.1044 12.365 7.5036 12.8578 7.5036H15.6458C15.6618 7.5036 15.6746 7.4956 15.6906 7.4948C16.1618 7.47 16.5378 7.0884 16.5378 6.6116C16.5378 6.1188 16.1386 5.7196 15.6458 5.7196H12.8578Z" fill="#4E5968"/>
<path d="M13.1378 9.62569C12.6618 9.75289 12.3794 10.2425 12.5074 10.7185C12.6146 11.1177 12.9746 11.3801 13.3682 11.3801C13.445 11.3801 13.5226 11.3697 13.6002 11.3489L16.293 10.6273C16.3986 10.5993 16.4906 10.5473 16.5754 10.4873C16.8706 10.2777 17.0234 9.90489 16.9234 9.53449C16.8082 9.10249 16.393 8.84729 15.9626 8.89529C15.9186 8.90009 15.8746 8.89129 15.8306 8.90329L13.1378 9.62569Z" fill="#4E5968"/>
<path d="M14.8859 13.026C14.4595 13.2724 14.3123 13.818 14.5595 14.2444C14.7251 14.5308 15.0243 14.6908 15.3331 14.6908C15.4843 14.6908 15.6379 14.6524 15.7787 14.5708L18.1939 13.1764C18.2955 13.118 18.3779 13.0404 18.4459 12.954C18.6651 12.6756 18.7083 12.2828 18.5203 11.958C18.2731 11.5308 17.7283 11.3844 17.3019 11.6316L17.2795 11.6444L14.8859 13.026Z" fill="#4E5968"/>
<path d="M17.8407 15.7297C17.4919 16.0785 17.4919 16.6433 17.8407 16.9913C18.0151 17.1657 18.2439 17.2529 18.4719 17.2529C18.6999 17.2529 18.9287 17.1657 19.1031 16.9913L21.0751 15.0201C21.1727 14.9225 21.2359 14.8065 21.2791 14.6849C21.3895 14.3713 21.3263 14.0097 21.0751 13.7585C20.7263 13.4097 20.1607 13.4097 19.8127 13.7585L19.6759 13.8953L17.8407 15.7297Z" fill="#4E5968"/>
</g>
<defs>
<clipPath id="clip0_40004853_5984">
<rect width="32" height="32" fill="white"/>
</clipPath>
</defs>
</svg>
