<svg width="32" height="32" viewBox="0 0 32 32" fill="none" xmlns="http://www.w3.org/2000/svg">
<g clip-path="url(#clip0_40004853_5976)">
<path d="M12.6816 10.9384H15.76C16.5976 10.9384 17.276 10.26 17.276 9.4224V7.2608L12.6816 10.9384Z" fill="#E68E51"/>
<path d="M7.40929 6.028C5.68769 6.9592 4.90929 7.7992 4.41489 9.2528C3.20609 12.808 2.04129 21.68 2.00049 25.1672C1.95969 28.6544 4.47409 29.8 7.41569 29.8C10.3573 29.8 23.7157 29.8256 26.4149 29.8256C28.8845 29.8256 30.0005 28.6728 30.0005 25.8664C30.0005 19.8152 26.2957 15.0632 20.6021 15.0632C14.9085 15.0632 9.86769 21.2912 9.86769 21.2912L10.3445 11.7344C10.3669 11.288 10.7357 10.9368 11.1821 10.9368H12.6821L17.4245 7.8552C18.1789 7.3648 18.3813 6.3496 17.8717 5.608L16.0709 2.9848C15.6085 2.3112 14.7181 2.092 13.9989 2.4784C12.1109 3.4936 8.63809 5.3616 7.40929 6.0264V6.028Z" fill="#FFCCA8"/>
</g>
<defs>
<clipPath id="clip0_40004853_5976">
<rect width="32" height="32" fill="white"/>
</clipPath>
</defs>
</svg>
