<svg width="32" height="32" viewBox="0 0 32 32" fill="none" xmlns="http://www.w3.org/2000/svg">
<g clip-path="url(#clip0_40004853_5907)">
<path d="M14.993 8.05838L13.077 6.66599L10.843 7.39198L9.94258 10.1632L11.3234 12.064H13.6298C12.7658 13.2348 11.5506 14.1292 10.1346 14.5824L10.8382 12.4168L9.40618 10.4456H6.59498L5.16138 12.4188L5.86378 14.5812C4.44858 14.1276 3.23458 13.234 2.37098 12.064H4.67738L6.06018 10.1608L5.16098 7.39358L2.92138 6.66599L1.00778 8.05678C1.00698 8.02358 1.00458 7.99118 1.00298 7.95838C1.00298 7.97278 1.00098 7.98638 1.00098 8.00038C1.00098 11.8664 4.13498 15.0004 8.00098 15.0004C11.867 15.0004 15.001 11.8664 15.001 8.00038C15.001 7.98598 14.999 7.97238 14.999 7.95838C14.997 7.99198 14.9946 8.02518 14.9938 8.05878L14.993 8.05838Z" fill="#E5E8EB"/>
<path d="M5.22095 6.78119C5.22975 6.77359 5.23535 6.76399 5.24495 6.75719L7.70015 4.97239V2.67679L5.85695 1.33679C4.44775 1.78959 3.23855 2.67919 2.37695 3.84319L3.10855 6.09479L5.22095 6.78119Z" fill="#E5E8EB"/>
<path d="M8.2998 4.97079L10.7578 6.75759C10.767 6.76399 10.7726 6.77359 10.781 6.78079L12.8914 6.09519L13.623 3.84399C12.7606 2.67959 11.551 1.78959 10.141 1.33679L8.2998 2.67519V4.97079Z" fill="#E5E8EB"/>
<path d="M15 7.91598C15 7.92798 15 7.94398 14.996 7.95598C14.996 7.99198 14.992 8.02398 14.992 8.05999L13.076 6.66398L10.844 7.39198L9.944 10.164L11.324 12.064H13.628C12.764 13.236 11.552 14.128 10.136 14.58L10.836 12.416L9.404 10.444H6.596L5.16 12.42L5.864 14.58C4.448 14.128 3.232 13.232 2.372 12.064H4.676L6.06 10.16L5.16 7.39198L2.92 6.66398L1.008 8.05598C1.008 8.02398 1.004 7.99198 1.004 7.95598C1 7.94398 1 7.93198 1 7.91598C1 6.36798 1.508 4.94398 2.356 3.78398L2.376 3.84398L3.108 6.09598L5.22 6.77998C5.228 6.77599 5.236 6.76398 5.244 6.75598L7.7 4.97198V2.67599L5.856 1.33599L5.78 1.27999C6.48 1.04799 7.224 0.915985 8 0.915985C8.776 0.915985 9.52 1.04799 10.22 1.27999L10.14 1.33599L8.3 2.67599V4.97198L10.76 6.75598C10.768 6.76398 10.772 6.77199 10.78 6.77998L12.892 6.09598L13.624 3.84398L13.644 3.78398C14.492 4.94398 15 6.36798 15 7.91598Z" fill="#313D4C"/>
</g>
<g clip-path="url(#clip1_40004853_5907)">
<path d="M24 15C27.866 15 31 11.866 31 8C31 4.13401 27.866 1 24 1C20.134 1 17 4.13401 17 8C17 11.866 20.134 15 24 15Z" fill="#F77F00"/>
<path d="M28.7497 13.162C25.9037 10.3156 25.9037 5.68441 28.7497 2.83801L29.1741 3.26241C26.5621 5.87481 26.5621 10.1256 29.1741 12.7376L28.7497 13.162Z" fill="#FFAD00"/>
<path d="M19.2506 13.162L18.8262 12.7376C21.4382 10.1252 21.4382 5.87441 18.8262 3.26241L19.2506 2.83801C22.0966 5.68441 22.0966 10.3156 19.2506 13.162Z" fill="#FFAD00"/>
<path d="M24.3002 1H23.7002V15H24.3002V1Z" fill="#FFAD00"/>
<path d="M31 7.70001H17V8.30001H31V7.70001Z" fill="#FFAD00"/>
</g>
<g clip-path="url(#clip2_40004853_5907)">
<path d="M8 31C11.866 31 15 27.866 15 24C15 20.134 11.866 17 8 17C4.13401 17 1 20.134 1 24C1 27.866 4.13401 31 8 31Z" fill="#69CC29"/>
<path d="M3.34338 18.7939C3.14458 18.9715 2.95658 19.1595 2.77938 19.3583C3.60898 20.3539 6.16898 24.0727 2.75098 28.6315C2.92898 28.8339 3.11898 29.0247 3.31898 29.2051C7.19658 24.1347 4.22178 19.8583 3.34338 18.7939Z" fill="#E5E9EE"/>
<path d="M13.2491 28.6315C9.83066 24.0731 12.3907 20.3539 13.2203 19.3583C13.0431 19.1595 12.8551 18.9715 12.6563 18.7939C11.7779 19.8583 8.80306 24.1343 12.6807 29.2047C12.8807 29.0243 13.0707 28.8335 13.2487 28.6311L13.2491 28.6315Z" fill="#E5E9EE"/>
</g>
<path d="M24 31C27.866 31 31 27.866 31 24C31 20.134 27.866 17 24 17C20.134 17 17 20.134 17 24C17 27.866 20.134 31 24 31Z" fill="#E5E9EE"/>
<path d="M27.3428 26.0104C29.0324 24.3208 29.7944 21.9148 29.4256 19.5796C29.202 19.3056 28.954 19.0532 28.692 18.816C28.6788 18.8652 28.6736 18.9168 28.6876 18.9696C29.3204 21.3268 28.6424 23.862 26.9184 25.5864C26.546 25.9588 26.132 26.2828 25.6892 26.5584C25.0844 25.842 24.6248 25.0008 24.3536 24.0784C25.1208 23.272 25.6864 22.3148 26.0264 21.2844L26.0272 21.2836C26.0288 21.2812 26.0284 21.2784 26.03 21.276C26.0504 21.2388 26.0616 21.2 26.0652 21.16C26.442 19.9472 26.5108 18.642 26.2356 17.3708C26.0204 17.2984 25.8008 17.2364 25.5768 17.1848C25.8872 18.35 25.8764 19.5584 25.5788 20.69C25.1076 20.4476 24.6104 20.2524 24.0944 20.1144C21.7712 19.4912 19.2896 20.046 17.4476 21.5556C17.3272 21.8776 17.2244 22.208 17.1524 22.5504C17.2152 22.542 17.2764 22.5184 17.3248 22.4704C19.05 20.7436 21.5836 20.0632 23.9396 20.694C24.4484 20.83 24.936 21.0264 25.396 21.2724C25.0784 22.1544 24.5796 22.9728 23.9164 23.6688C22.8332 23.4076 21.7212 23.396 20.658 23.6172C20.658 23.6172 20.6568 23.6172 20.656 23.6172C20.6116 23.6172 20.5708 23.6284 20.5328 23.646C19.2844 23.928 18.1116 24.5288 17.1436 25.414C17.1896 25.638 17.2464 25.858 17.3132 26.0736C17.3168 26.0704 17.3212 26.0692 17.3248 26.066C18.1804 25.2092 19.2356 24.6108 20.3692 24.3016C20.3948 24.8308 20.4748 25.3588 20.6128 25.8756C21.232 28.186 22.9376 30.05 25.1476 30.8976C25.5 30.8392 25.8444 30.7588 26.1768 30.65C26.1396 30.6096 26.0952 30.5756 26.0384 30.5604C23.6804 29.9296 21.8236 28.0752 21.1928 25.72C21.0564 25.2112 20.9828 24.6904 20.9656 24.1692C21.8884 24.0032 22.8464 24.026 23.7808 24.2524C24.4756 26.6088 26.3048 28.4792 28.6384 29.2324C28.8092 29.0812 28.972 28.9216 29.1268 28.7544C27.968 28.4396 26.9312 27.828 26.1028 27.0072C26.5484 26.7204 26.9652 26.3876 27.3432 26.0092L27.3428 26.0104Z" fill="#D0D5DA"/>
<defs>
<clipPath id="clip0_40004853_5907">
<rect width="16" height="16" fill="white"/>
</clipPath>
<clipPath id="clip1_40004853_5907">
<rect width="16" height="16" fill="white" transform="translate(16)"/>
</clipPath>
<clipPath id="clip2_40004853_5907">
<rect y="16" width="16" height="16" rx="8" fill="white"/>
</clipPath>
</defs>
</svg>
