<svg width="32" height="32" viewBox="0 0 32 32" fill="none" xmlns="http://www.w3.org/2000/svg">
<g clip-path="url(#clip0_40004853_5949)">
<path d="M25.5989 8.23087C24.6861 5.37407 22.0309 3.43567 19.0317 3.43567H12.9701C9.97088 3.43567 7.31568 5.37487 6.40288 8.23087L1.74448 28.0093C1.65888 28.3725 1.88848 28.7349 2.25248 28.8133L5.90528 29.6005C6.26528 29.6781 6.61968 29.4493 6.69728 29.0901L9.52288 16.0325L9.95808 20.1685L8.75568 29.5045C8.69248 29.8597 8.96608 30.1853 9.32608 30.1853H22.6773C23.0381 30.1853 23.3109 29.8597 23.2477 29.5045L22.0453 20.1685L22.4805 16.0325L25.1589 29.0853C25.2333 29.4469 25.5869 29.6789 25.9485 29.6037L29.7453 28.8093C30.1117 28.7325 30.3437 28.3685 30.2573 28.0045L25.5997 8.23007L25.5989 8.23087Z" fill="#DBE0E6"/>
<path d="M12.8281 1.8136H18.6849L15.8873 9.3408L12.8281 1.8136Z" fill="#979EA6"/>
<path d="M18.685 1.8136L10.8682 19.8216L12.2914 20.4392L19.6146 3.5704L18.685 1.8136Z" fill="#AFB7C0"/>
<path d="M16.3859 10.0096L12.8283 1.8136L11.8379 3.5224L15.3771 11.5824L16.3859 10.0096Z" fill="#AFB7C0"/>
<path d="M22.0369 19.508H9.97769C9.75324 19.508 9.57129 19.6899 9.57129 19.9144V20.6336C9.57129 20.858 9.75324 21.04 9.97769 21.04H22.0369C22.2613 21.04 22.4433 20.858 22.4433 20.6336V19.9144C22.4433 19.6899 22.2613 19.508 22.0369 19.508Z" fill="#333D4B"/>
<path d="M16.8984 19.9648L19.4954 26.936C19.5753 27.1504 19.4664 27.3898 19.2513 27.47L18.5938 27.7149C18.3794 27.7948 18.14 27.6859 18.0598 27.4708L15.4628 20.4996L16.8984 19.9648Z" fill="#333D4B"/>
<path d="M16.5518 20.4993L13.9548 27.4705C13.8749 27.6849 13.6359 27.7948 13.4207 27.7146L12.7633 27.4697C12.5489 27.3898 12.439 27.1508 12.5192 26.9357L15.1161 19.9645L16.5518 20.4993Z" fill="#333D4B"/>
</g>
<defs>
<clipPath id="clip0_40004853_5949">
<rect width="32" height="32" fill="white"/>
</clipPath>
</defs>
</svg>
