<svg width="30" height="26" viewBox="0 0 30 26" fill="none" xmlns="http://www.w3.org/2000/svg">
<g clip-path="url(#clip0_40005004_3532)">
<path d="M12.1114 2.91016L8.75 6.27161L23.021 20.5426L26.3825 17.1812L12.1114 2.91016Z" fill="#BDC5FF"/>
<path d="M8.24767 10.2708L5.83984 7.863C5.83984 6.99542 5.83984 6.50815 5.83984 5.64295L11.4827 0.00012207C12.3502 0.00012207 12.8375 0.00012207 13.7027 0.00012207L16.1105 2.40795C16.1105 2.94276 16.1105 3.24225 16.1105 3.77706L9.6144 10.2708C9.08197 10.2708 8.78248 10.2708 8.24767 10.2708Z" fill="#7D99FF"/>
<path d="M19.0234 21.0481L21.4313 23.4559C22.2988 23.4559 22.7861 23.4559 23.6513 23.4559L29.2941 17.8131C29.2941 16.9455 29.2941 16.4582 29.2941 15.593L26.8863 13.1852C26.3515 13.1852 26.052 13.1852 25.5172 13.1852L19.0234 19.6789C19.0234 20.2138 19.0234 20.5132 19.0234 21.0481Z" fill="#7D99FF"/>
<path d="M22.6825 17.397H2.5V22.1508H22.6825V17.397Z" fill="#BDC5FF"/>
<path d="M4.97491 25.3336H1.57115C0.957901 24.7204 0.613247 24.3781 0 23.7648V15.7855C0.613247 15.1723 0.957901 14.8276 1.57115 14.2144H4.97491C5.35284 14.5923 5.56438 14.8038 5.94232 15.1818V24.3686C5.56438 24.7441 5.35284 24.9557 4.97491 25.3336Z" fill="#4B60F7"/>
<path d="M20.2135 25.3336H23.6173C24.2305 24.7204 24.5752 24.3757 25.1884 23.7625V15.7855C24.5752 15.1723 24.2305 14.8276 23.6173 14.2144H20.2135C19.8356 14.5923 19.624 14.8038 19.2461 15.1818V24.3686C19.624 24.7441 19.8356 24.9557 20.2135 25.3336Z" fill="#4B60F7"/>
<path d="M23.6359 17.0288H21.7344V18.6546H23.6359V17.0288Z" fill="white"/>
</g>
<defs>
<clipPath id="clip0_40005004_3532">
<rect width="29.2932" height="25.3333" fill="white"/>
</clipPath>
</defs>
</svg>
