<svg width="32" height="32" viewBox="0 0 32 32" fill="none" xmlns="http://www.w3.org/2000/svg">
<g clip-path="url(#clip0_40005004_909)">
<path d="M16 31.0001C24.8366 31.0001 32 28.0732 32 24.4626C32 20.8521 24.8366 17.9252 16 17.9252C7.16344 17.9252 0 20.8521 0 24.4626C0 28.0732 7.16344 31.0001 16 31.0001Z" fill="#BDC5FF"/>
<path d="M24.3832 8.1309L9.75766 2.11572V14.1461L24.3832 8.1309Z" fill="#4B60F7"/>
<path d="M10.5209 0.999878H7.35077V25.3374H10.5209V0.999878Z" fill="#7D99FF"/>
<path d="M22.7473 27.6185C24.6232 27.6185 26.1439 26.1196 26.1439 24.2706C26.1439 22.4215 24.6232 20.9226 22.7473 20.9226C20.8715 20.9226 19.3508 22.4215 19.3508 24.2706C19.3508 26.1196 20.8715 27.6185 22.7473 27.6185Z" fill="white"/>
</g>
<defs>
<clipPath id="clip0_40005004_909">
<rect width="32" height="30" fill="white" transform="translate(0 1)"/>
</clipPath>
</defs>
</svg>
