<svg width="32" height="32" viewBox="0 0 32 32" fill="none" xmlns="http://www.w3.org/2000/svg">
<g clip-path="url(#clip0_40005073_22145)">
<path d="M14.993 8.05842L13.077 6.66602L10.843 7.39202L9.94258 10.1632L11.3234 12.064H13.6298C12.7658 13.2348 11.5506 14.1292 10.1346 14.5824L10.8382 12.4168L9.40618 10.4456H6.59498L5.16138 12.4188L5.86378 14.5812C4.44858 14.1276 3.23458 13.234 2.37098 12.064H4.67738L6.06018 10.1608L5.16098 7.39361L2.92138 6.66602L1.00778 8.05682C1.00698 8.02362 1.00458 7.99122 1.00298 7.95842C1.00298 7.97282 1.00098 7.98641 1.00098 8.00041C1.00098 11.8664 4.13498 15.0004 8.00098 15.0004C11.867 15.0004 15.001 11.8664 15.001 8.00041C15.001 7.98601 14.999 7.97242 14.999 7.95842C14.997 7.99202 14.9946 8.02521 14.9938 8.05881L14.993 8.05842Z" fill="#E5E8EB"/>
<path d="M5.22095 6.78131C5.22975 6.77371 5.23535 6.76411 5.24495 6.75731L7.70015 4.97251V2.67691L5.85695 1.33691C4.44775 1.78971 3.23855 2.67931 2.37695 3.84331L3.10855 6.09491L5.22095 6.78131Z" fill="#E5E8EB"/>
<path d="M8.2998 4.97091L10.7578 6.75771C10.767 6.76411 10.7726 6.77371 10.781 6.78091L12.8914 6.09531L13.623 3.84411C12.7606 2.67971 11.551 1.78971 10.141 1.33691L8.2998 2.67531V4.97091Z" fill="#E5E8EB"/>
<path d="M15 7.91602C15 7.92802 15 7.94401 14.996 7.95601C14.996 7.99201 14.992 8.02402 14.992 8.06002L13.076 6.66402L10.844 7.39201L9.944 10.164L11.324 12.064H13.628C12.764 13.236 11.552 14.128 10.136 14.58L10.836 12.416L9.404 10.444H6.596L5.16 12.42L5.864 14.58C4.448 14.128 3.232 13.232 2.372 12.064H4.676L6.06 10.16L5.16 7.39201L2.92 6.66402L1.008 8.05601C1.008 8.02401 1.004 7.99201 1.004 7.95601C1 7.94401 1 7.93202 1 7.91602C1 6.36802 1.508 4.94402 2.356 3.78402L2.376 3.84402L3.108 6.09602L5.22 6.78002C5.228 6.77602 5.236 6.76402 5.244 6.75601L7.7 4.97202V2.67602L5.856 1.33602L5.78 1.28002C6.48 1.04802 7.224 0.916016 8 0.916016C8.776 0.916016 9.52 1.04802 10.22 1.28002L10.14 1.33602L8.3 2.67602V4.97202L10.76 6.75601C10.768 6.76402 10.772 6.77202 10.78 6.78002L12.892 6.09602L13.624 3.84402L13.644 3.78402C14.492 4.94402 15 6.36802 15 7.91602Z" fill="#313D4C"/>
</g>
<g clip-path="url(#clip1_40005073_22145)">
<path d="M24 15C27.866 15 31 11.866 31 8C31 4.13401 27.866 1 24 1C20.134 1 17 4.13401 17 8C17 11.866 20.134 15 24 15Z" fill="#F77F00"/>
<path d="M28.7497 13.1619C25.9037 10.3155 25.9037 5.68429 28.7497 2.83789L29.1741 3.26229C26.5621 5.87469 26.5621 10.1255 29.1741 12.7375L28.7497 13.1619Z" fill="#FFAD00"/>
<path d="M19.2506 13.1619L18.8262 12.7375C21.4382 10.1251 21.4382 5.87429 18.8262 3.26229L19.2506 2.83789C22.0966 5.68429 22.0966 10.3155 19.2506 13.1619Z" fill="#FFAD00"/>
<path d="M24.3002 1H23.7002V15H24.3002V1Z" fill="#FFAD00"/>
<path d="M31 7.7002H17V8.3002H31V7.7002Z" fill="#FFAD00"/>
</g>
<g clip-path="url(#clip2_40005073_22145)">
<path d="M8 31C11.866 31 15 27.866 15 24C15 20.134 11.866 17 8 17C4.13401 17 1 20.134 1 24C1 27.866 4.13401 31 8 31Z" fill="#69CC29"/>
<path d="M3.34338 18.7939C3.14458 18.9715 2.95658 19.1595 2.77938 19.3583C3.60898 20.3539 6.16898 24.0727 2.75098 28.6315C2.92898 28.8339 3.11898 29.0247 3.31898 29.2051C7.19658 24.1347 4.22178 19.8583 3.34338 18.7939Z" fill="#E5E9EE"/>
<path d="M13.2491 28.6315C9.83066 24.0731 12.3907 20.3539 13.2203 19.3583C13.0431 19.1595 12.8551 18.9715 12.6563 18.7939C11.7779 19.8583 8.80306 24.1343 12.6807 29.2047C12.8807 29.0243 13.0707 28.8335 13.2487 28.6311L13.2491 28.6315Z" fill="#E5E9EE"/>
</g>
<path d="M24 31C27.866 31 31 27.866 31 24C31 20.134 27.866 17 24 17C20.134 17 17 20.134 17 24C17 27.866 20.134 31 24 31Z" fill="#E5E9EE"/>
<path d="M27.3428 26.0102C29.0324 24.3206 29.7944 21.9146 29.4256 19.5794C29.202 19.3054 28.954 19.053 28.692 18.8158C28.6788 18.865 28.6736 18.9166 28.6876 18.9694C29.3204 21.3266 28.6424 23.8618 26.9184 25.5862C26.546 25.9586 26.132 26.2826 25.6892 26.5582C25.0844 25.8418 24.6248 25.0006 24.3536 24.0782C25.1208 23.2718 25.6864 22.3146 26.0264 21.2842L26.0272 21.2834C26.0288 21.281 26.0284 21.2782 26.03 21.2758C26.0504 21.2386 26.0616 21.1998 26.0652 21.1598C26.442 19.947 26.5108 18.6418 26.2356 17.3706C26.0204 17.2982 25.8008 17.2362 25.5768 17.1846C25.8872 18.3498 25.8764 19.5582 25.5788 20.6898C25.1076 20.4474 24.6104 20.2522 24.0944 20.1142C21.7712 19.491 19.2896 20.0458 17.4476 21.5554C17.3272 21.8774 17.2244 22.2078 17.1524 22.5502C17.2152 22.5418 17.2764 22.5182 17.3248 22.4702C19.05 20.7434 21.5836 20.063 23.9396 20.6938C24.4484 20.8298 24.936 21.0262 25.396 21.2722C25.0784 22.1542 24.5796 22.9726 23.9164 23.6686C22.8332 23.4074 21.7212 23.3958 20.658 23.617C20.658 23.617 20.6568 23.617 20.656 23.617C20.6116 23.617 20.5708 23.6282 20.5328 23.6458C19.2844 23.9278 18.1116 24.5286 17.1436 25.4138C17.1896 25.6378 17.2464 25.8578 17.3132 26.0734C17.3168 26.0702 17.3212 26.069 17.3248 26.0658C18.1804 25.209 19.2356 24.6106 20.3692 24.3014C20.3948 24.8306 20.4748 25.3586 20.6128 25.8754C21.232 28.1858 22.9376 30.0498 25.1476 30.8974C25.5 30.839 25.8444 30.7586 26.1768 30.6498C26.1396 30.6094 26.0952 30.5754 26.0384 30.5602C23.6804 29.9294 21.8236 28.075 21.1928 25.7198C21.0564 25.211 20.9828 24.6902 20.9656 24.169C21.8884 24.003 22.8464 24.0258 23.7808 24.2522C24.4756 26.6086 26.3048 28.479 28.6384 29.2322C28.8092 29.081 28.972 28.9214 29.1268 28.7542C27.968 28.4394 26.9312 27.8278 26.1028 27.007C26.5484 26.7202 26.9652 26.3874 27.3432 26.009L27.3428 26.0102Z" fill="#D0D5DA"/>
<defs>
<clipPath id="clip0_40005073_22145">
<rect width="16" height="16" fill="white"/>
</clipPath>
<clipPath id="clip1_40005073_22145">
<rect width="16" height="16" fill="white" transform="translate(16)"/>
</clipPath>
<clipPath id="clip2_40005073_22145">
<rect y="16" width="16" height="16" rx="8" fill="white"/>
</clipPath>
</defs>
</svg>
