<svg width="32" height="32" viewBox="0 0 32 32" fill="none" xmlns="http://www.w3.org/2000/svg">
<g clip-path="url(#clip0_40005073_22107)">
<path d="M25.5989 8.23075C24.6861 5.37395 22.0309 3.43555 19.0317 3.43555H12.9701C9.97088 3.43555 7.31568 5.37475 6.40288 8.23075L1.74448 28.0091C1.65888 28.3723 1.88848 28.7347 2.25248 28.8131L5.90528 29.6003C6.26528 29.6779 6.61968 29.4491 6.69728 29.0899L9.52288 16.0323L9.95808 20.1683L8.75568 29.5043C8.69248 29.8595 8.96608 30.1851 9.32608 30.1851H22.6773C23.0381 30.1851 23.3109 29.8595 23.2477 29.5043L22.0453 20.1683L22.4805 16.0323L25.1589 29.0851C25.2333 29.4467 25.5869 29.6787 25.9485 29.6035L29.7453 28.8091C30.1117 28.7323 30.3437 28.3683 30.2573 28.0043L25.5997 8.22995L25.5989 8.23075Z" fill="#DBE0E6"/>
<path d="M12.8281 1.81348H18.6849L15.8873 9.34068L12.8281 1.81348Z" fill="#979EA6"/>
<path d="M18.685 1.81348L10.8682 19.8215L12.2914 20.4391L19.6146 3.57028L18.685 1.81348Z" fill="#AFB7C0"/>
<path d="M16.3859 10.0095L12.8283 1.81348L11.8379 3.52228L15.3771 11.5823L16.3859 10.0095Z" fill="#AFB7C0"/>
<path d="M22.0369 19.5078H9.97769C9.75324 19.5078 9.57129 19.6898 9.57129 19.9142V20.6334C9.57129 20.8579 9.75324 21.0398 9.97769 21.0398H22.0369C22.2613 21.0398 22.4433 20.8579 22.4433 20.6334V19.9142C22.4433 19.6898 22.2613 19.5078 22.0369 19.5078Z" fill="#333D4B"/>
<path d="M16.8984 19.9648L19.4954 26.936C19.5753 27.1504 19.4664 27.3899 19.2513 27.47L18.5938 27.715C18.3794 27.7948 18.14 27.686 18.0598 27.4708L15.4628 20.4997L16.8984 19.9648Z" fill="#333D4B"/>
<path d="M16.5518 20.499L13.9548 27.4702C13.8749 27.6846 13.6359 27.7945 13.4207 27.7143L12.7633 27.4694C12.5489 27.3895 12.439 27.1505 12.5192 26.9354L15.1161 19.9642L16.5518 20.499Z" fill="#333D4B"/>
</g>
<defs>
<clipPath id="clip0_40005073_22107">
<rect width="32" height="32" fill="white"/>
</clipPath>
</defs>
</svg>
