<svg width="16" height="16" viewBox="0 0 16 16" fill="none" xmlns="http://www.w3.org/2000/svg">
<path d="M10.3957 12.231C9.95751 12.5937 9.41926 12.7705 8.88291 12.7705C8.22569 12.7705 7.57224 12.5026 7.11331 11.9831C6.27668 11.0409 6.39188 9.62114 7.37016 8.81558L8.35977 7.99909L7.37016 7.18259C6.39377 6.37704 6.27856 4.95911 7.1152 4.01504C7.95184 3.07279 9.42115 2.96161 10.3975 3.76717L15 7.56533V2.72286C15 2.25083 14.9377 2.14694 14.6506 1.89725C13.204 0.714432 11.3324 0 9.29084 0C4.71105 0 1 3.58127 1 7.99909C1 12.4169 4.71105 16 9.29084 16C11.3229 16 13.1851 15.291 14.6261 14.1191C14.932 13.8567 14.9981 13.7583 14.9981 13.2753V8.43285L10.3957 12.231Z" fill="#009FE3"/>
</svg>
