<svg width="32" height="32" viewBox="0 0 32 32" fill="none" xmlns="http://www.w3.org/2000/svg">
<path d="M22.8341 7.99966C22.6877 8.05566 22.5413 8.11406 22.3893 8.14926L22.0549 8.95566C21.8381 9.47726 21.2397 9.72526 20.7181 9.50846C20.1965 9.29166 19.9485 8.69326 20.1653 8.17166L20.2485 7.97086L19.5629 7.77246C19.0709 8.80446 18.0669 9.81006 16.8589 10.7277C13.5813 13.2173 8.82129 15.0653 8.82129 15.0653C8.83009 15.0773 8.83809 15.0877 8.84689 15.0997C9.63249 16.1869 10.4101 17.1373 11.1701 17.9685C13.6037 20.6333 15.8469 22.0725 17.5501 22.8501C19.4221 23.7037 20.6397 23.7589 20.7437 23.7621C20.7485 23.7621 20.7549 23.7621 20.7549 23.7621C20.8933 23.1517 21.0213 22.5541 21.1413 21.9677C21.1741 21.8069 21.2029 21.6533 21.2349 21.4949C21.8645 18.3461 22.2493 15.5789 22.4797 13.3845C22.7901 10.4261 22.8293 8.50526 22.8341 8.08686C22.8341 8.03166 22.8341 8.00126 22.8341 7.99966Z" fill="#BE3637"/>
<path d="M23.9039 2.23156L22.0399 4.30356C21.6479 3.81556 20.9999 3.71156 20.5359 4.09556C20.0319 4.51156 19.9359 5.31956 20.3199 5.91156C20.4799 6.15156 20.6959 6.31956 20.9359 6.39956L20.2799 7.96756V7.97556L20.2479 7.96756L19.5599 7.77556L19.0079 7.60756L17.4479 7.15956C17.0559 7.04756 16.8639 6.60756 17.0479 6.23956L18.3999 3.51956H18.4079L18.4159 3.53556C18.4319 3.47956 18.4559 3.42356 18.4799 3.36756C18.5039 3.30356 18.5359 3.23956 18.5679 3.18356C18.6399 3.04756 18.7199 2.91956 18.8159 2.79156C18.8559 2.73556 18.8959 2.67956 18.9439 2.62356C19.0399 2.50356 19.1359 2.39956 19.2479 2.29556C19.3039 2.23956 19.3679 2.18356 19.4319 2.13556C19.5359 2.04756 19.6479 1.96756 19.7679 1.88756C19.8399 1.83956 19.9199 1.79956 19.9999 1.75956C20.1119 1.69556 20.2319 1.63956 20.3519 1.59156C20.4479 1.55956 20.5359 1.52756 20.6319 1.49556C20.7519 1.46356 20.8719 1.43956 20.9999 1.41556C21.0559 1.39956 21.1119 1.38356 21.1759 1.37556C21.2159 1.36756 21.2559 1.37556 21.2959 1.37556C21.4399 1.35956 21.5839 1.35956 21.7199 1.36756C21.8159 1.36756 21.9039 1.36756 21.9999 1.37556C22.1519 1.39956 22.2959 1.43156 22.4399 1.46356C22.5199 1.48756 22.5999 1.50356 22.6799 1.52756C22.8319 1.57556 22.9839 1.64756 23.1279 1.71956C23.1919 1.75156 23.2639 1.77556 23.3279 1.81556C23.4799 1.90356 23.6159 2.01556 23.7519 2.11956C23.7999 2.15956 23.8559 2.19156 23.9039 2.23156Z" fill="#333333"/>
<path d="M19.8965 31.1366L16.9445 29.6806C16.5045 29.4646 16.2645 29.0006 16.3205 28.5206C16.3205 28.4726 16.3205 28.4246 16.3285 28.3686L17.5525 22.8486C19.4245 23.7046 20.6405 23.7606 20.7445 23.7606L19.9045 27.5686L21.0005 30.0806C21.3125 30.7766 20.5845 31.4726 19.8965 31.1366Z" fill="#FFCCA8"/>
<path d="M16.3279 28.3682C16.3199 28.4242 16.3199 28.4722 16.3199 28.5202L16.2959 28.5122L16.3279 28.3682Z" fill="#FFCCA8"/>
<path d="M19.5606 7.77627C19.0726 8.80827 18.0726 9.80827 16.8566 10.7283L11.5046 10.5283C11.3366 10.7043 11.1366 10.8563 10.9046 10.9683C9.93658 11.4243 8.78458 11.0083 8.32858 10.0403C7.87258 9.07227 8.28857 7.92027 9.25657 7.46427C9.55257 7.32027 9.86458 7.27227 10.1686 7.28827V7.28027L19.0086 7.60827L19.5606 7.77627Z" fill="#FFCCA8"/>
<path d="M29.9045 12.8249C29.8885 12.8329 29.8645 12.8329 29.8485 12.8409V12.8489L26.9285 14.5609C26.4245 14.8569 25.8645 15.0089 25.2885 15.0089C25.0085 15.0089 24.7205 14.9689 24.4325 14.8969C23.6005 14.6729 22.9125 14.1289 22.4805 13.3849C22.7925 10.4249 22.8325 8.50487 22.8325 8.08887L24.9845 11.9289C25.0405 12.0329 25.1285 12.0809 25.1925 12.0969C25.2565 12.1129 25.3525 12.1209 25.4565 12.0569L27.2645 11.0009C27.3205 10.3529 27.6965 9.74487 28.3285 9.45687C29.2565 9.01687 30.3605 9.41687 30.8005 10.3449C31.2325 11.2809 30.8325 12.3849 29.9045 12.8249Z" fill="#FFCCA8"/>
<path d="M23.9282 2.24842C23.9202 2.24842 23.9122 2.24042 23.9042 2.23242L22.0402 4.30442C21.6482 3.81642 21.0002 3.71242 20.5362 4.09642C20.0322 4.51242 19.9362 5.32042 20.3202 5.91242C20.4802 6.15242 20.6962 6.32042 20.9362 6.40042L20.2802 7.96842V7.97642L20.2482 7.96842L20.1682 8.16842C19.9522 8.69642 20.2002 9.28842 20.7202 9.51242C21.2402 9.72842 21.8402 9.48042 22.0562 8.95242L22.3922 8.15242C22.5442 8.11242 22.6882 8.05642 22.8322 8.00042C23.3202 7.81642 23.7682 7.52842 24.1442 7.12042C25.4322 5.72042 25.3282 3.53642 23.9282 2.24842ZM24.1362 5.02442C23.9682 5.04042 23.8002 4.82442 23.7602 4.52842C23.7282 4.23242 23.8322 3.97642 24.0002 3.95242C24.1682 3.93642 24.3362 4.15242 24.3682 4.44842C24.4082 4.74442 24.3042 5.00042 24.1362 5.02442Z" fill="#FFCCA8"/>
<path d="M11.1682 17.9685L6.62418 19.0085L6.29618 19.3925C5.94418 19.8085 5.35218 19.9205 4.87218 19.6645L1.96018 18.1285C1.28818 17.7685 1.42418 16.7685 2.16818 16.6165L5.12018 15.9525L8.84818 15.1045C9.63218 16.1845 10.4082 17.1365 11.1682 17.9685Z" fill="#FFCCA8"/>
<path d="M24.1326 5.02212C24.2998 5.00132 24.4062 4.74532 24.3694 4.44932C24.3326 4.15332 24.167 3.93172 23.999 3.95252C23.831 3.97332 23.7254 4.22932 23.7622 4.52532C23.799 4.82132 23.9646 5.04292 24.1326 5.02212Z" fill="black"/>
</svg>
