<svg width="72" height="72" viewBox="0 0 72 72" fill="none" xmlns="http://www.w3.org/2000/svg">
<path d="M32.6361 23.296C33.2491 21.1737 35.4666 19.9501 37.589 20.5631L54.5114 25.4509C56.6338 26.0639 57.8573 28.2814 57.2443 30.4038L49.4298 57.4589C48.8167 59.5813 46.5993 60.8049 44.4769 60.1919L27.5545 55.3041C25.4321 54.691 24.2086 52.4736 24.8216 50.3512L32.6361 23.296Z" fill="#7B8A9F"/>
<path d="M26.5725 21.4046C26.7773 19.205 28.7265 17.5879 30.9261 17.7927L48.4644 19.4257C50.664 19.6305 52.2811 21.5797 52.0763 23.7793L49.4656 51.8191C49.2608 54.0187 47.3116 55.6359 45.112 55.4311L27.5737 53.7981C25.3741 53.5933 23.757 51.6441 23.9618 49.4445L26.5725 21.4046Z" fill="#AAB7C8"/>
<path d="M16 14C16 11.7909 17.7909 10 20 10H43.5408C45.75 10 47.5408 11.7909 47.5408 14V50.5282C47.5408 52.7374 45.75 54.5282 43.5408 54.5282H20C17.7909 54.5282 16 52.7374 16 50.5282V14Z" fill="#D9DFE6"/>
<rect x="20.1172" y="15.7656" width="10" height="10" rx="2" fill="#BDC9D8"/>
<rect x="20.1172" y="33.7656" width="22" height="3" rx="1" fill="#BDC9D8"/>
<rect x="20.1172" y="38.7656" width="22" height="3" rx="1" fill="#BDC9D8"/>
<rect x="20.1172" y="43.7656" width="10" height="3" rx="1" fill="#BDC9D8"/>
</svg>
