<svg width="24" height="24" viewBox="0 0 24 24" fill="none" xmlns="http://www.w3.org/2000/svg">
<g clip-path="url(#clip0_40005525_6417)">
<path d="M22.9776 0.5H6.6051C6.04008 0.5 5.58203 0.971881 5.58203 1.55398V6.25L15.0704 9.125L24.0006 6.25V1.55398C24.0006 0.971881 23.5426 0.5 22.9776 0.5Z" fill="#41A5EE"/>
<path d="M24.0006 6.25H5.58203V12L15.0704 13.725L24.0006 12V6.25Z" fill="#2B7CD3"/>
<path d="M5.58203 12V17.75L14.5123 18.9L24.0006 17.75V12H5.58203Z" fill="#185ABD"/>
<path d="M6.6051 23.5H22.9776C23.5426 23.5 24.0006 23.0281 24.0006 22.446V17.75H5.58203V22.446C5.58203 23.0281 6.04008 23.5 6.6051 23.5Z" fill="#103F91"/>
<path opacity="0.1" d="M12.3729 5.09961H5.58203V19.4746H12.3729C12.9372 19.4727 13.3941 19.0019 13.396 18.4206V6.15359C13.3941 5.57228 12.9372 5.1015 12.3729 5.09961Z" fill="black"/>
<path opacity="0.2" d="M11.8148 5.67578H5.58203V20.0508H11.8148C12.379 20.0489 12.836 19.5781 12.8378 18.9968V6.72976C12.836 6.14845 12.379 5.67767 11.8148 5.67578Z" fill="black"/>
<path opacity="0.2" d="M11.8148 5.67578H5.58203V18.9008H11.8148C12.379 18.8989 12.836 18.4281 12.8378 17.8468V6.72976C12.836 6.14845 12.379 5.67767 11.8148 5.67578Z" fill="black"/>
<path opacity="0.2" d="M11.2566 5.67578H5.58203V18.9008H11.2566C11.8209 18.8989 12.2779 18.4281 12.2797 17.8468V6.72976C12.2779 6.14845 11.8209 5.67767 11.2566 5.67578Z" fill="black"/>
<path d="M1.02307 5.67578H11.256C11.821 5.67578 12.2791 6.14766 12.2791 6.72976V17.2718C12.2791 17.8539 11.821 18.3258 11.256 18.3258H1.02307C0.458044 18.3258 0 17.8539 0 17.2718V6.72976C0 6.14766 0.458044 5.67578 1.02307 5.67578Z" fill="url(#paint0_linear_40005525_6417)"/>
<path d="M4.19827 13.7588C4.21836 13.9215 4.23175 14.0629 4.23789 14.1843H4.26133C4.27026 14.0693 4.28886 13.9307 4.31714 13.7685C4.34542 13.6064 4.37091 13.4693 4.39361 13.3574L5.4697 8.57457H6.86115L7.97742 13.2855C8.04228 13.5785 8.08871 13.8754 8.11641 14.1745H8.13483C8.15564 13.8847 8.19441 13.5966 8.25092 13.312L9.14115 8.57227H10.4076L8.84366 15.4263H7.36403L6.30357 10.8872C6.27287 10.7567 6.23771 10.5859 6.1992 10.376C6.16068 10.1662 6.13669 10.0126 6.1272 9.91603H6.10877C6.0965 10.0276 6.07249 10.1932 6.03677 10.4128C6.00105 10.6325 5.9724 10.795 5.95081 10.9004L4.95397 15.4251H3.44922L1.87695 8.57455H3.16625L4.13574 13.3672C4.15752 13.4655 4.17817 13.5966 4.19827 13.7588Z" fill="white"/>
</g>
<defs>
<linearGradient id="paint0_linear_40005525_6417" x1="2.13312" y1="4.85223" x2="10.5089" y2="18.9334" gradientUnits="userSpaceOnUse">
<stop stop-color="#2368C4"/>
<stop offset="0.5" stop-color="#1A5DBE"/>
<stop offset="1" stop-color="#1146AC"/>
</linearGradient>
<clipPath id="clip0_40005525_6417">
<rect width="24" height="23" fill="white" transform="translate(0 0.5)"/>
</clipPath>
</defs>
</svg>
