<svg width="24" height="24" viewBox="0 0 24 24" fill="none" xmlns="http://www.w3.org/2000/svg">
<g clip-path="url(#clip0_40005942_57847)">
<path d="M15.6289 12.2391L21.7089 17.0691V7.03906L15.6289 12.2391Z" fill="#1B1D1F"/>
<path d="M2.28906 7.03906V17.0691L8.36906 12.2391L2.28906 7.03906Z" fill="#1B1D1F"/>
<path d="M12.6499 14.8003C12.4599 14.9603 12.2299 15.0403 11.9999 15.0403C11.7699 15.0403 11.5399 14.9603 11.3499 14.8003L9.91992 13.5703L4.16992 18.1403H19.8499L14.0999 13.5703L12.6699 14.8003H12.6499Z" fill="#1B1D1F"/>
<path d="M10.74 11.6394L11.51 12.2994L12 12.7194L12.49 12.2994L13.26 11.6394L14.03 10.9794L20 5.85938H4L9.96 10.9794L10.74 11.6394Z" fill="#1B1D1F"/>
</g>
<defs>
<clipPath id="clip0_40005942_57847">
<rect width="24" height="24" fill="white"/>
</clipPath>
</defs>
</svg>
