<svg width="24" height="24" viewBox="0 0 24 24" fill="none" xmlns="http://www.w3.org/2000/svg">
<path d="M16.4593 6.78031C17.2093 8.21031 17.6493 9.79031 17.7393 11.4003H20.9993C20.8493 9.07031 19.8193 6.99031 18.2293 5.47031C16.8993 4.20031 15.1793 3.34031 13.2793 3.07031C14.5993 4.06031 15.6993 5.33031 16.4693 6.78031H16.4593Z" fill="#1B1D1F"/>
<path d="M6.25977 11.4003C6.34977 9.79031 6.77977 8.21031 7.53977 6.78031C8.30977 5.32031 9.39977 4.06031 10.7298 3.07031C8.81977 3.34031 7.09977 4.20031 5.77977 5.47031C4.18977 6.99031 3.15977 9.07031 3.00977 11.4003H6.26977H6.25977Z" fill="#1B1D1F"/>
<path d="M17.7395 12.6016C17.6595 14.1216 17.2695 15.5916 16.5795 16.9816C15.7995 18.5416 14.6595 19.8916 13.2695 20.9316C15.2495 20.6516 17.0295 19.7416 18.3795 18.3916C19.8795 16.8916 20.8495 14.8616 20.9995 12.6016H17.7395Z" fill="#1B1D1F"/>
<path d="M7.42 16.9698C6.73 15.5798 6.34 14.1098 6.26 12.5898H3C3.15 14.8398 4.11 16.8798 5.62 18.3798C6.97 19.7298 8.75 20.6398 10.73 20.9198C9.34 19.8798 8.2 18.5298 7.42 16.9698Z" fill="#1B1D1F"/>
<path d="M15.4096 7.34078C14.7296 6.05078 13.7696 4.93078 12.5996 4.05078V11.4008H16.5496C16.4696 9.98078 16.0796 8.62078 15.4096 7.34078Z" fill="#1B1D1F"/>
<path d="M8.60094 7.34078C7.93094 8.61078 7.55094 9.98078 7.46094 11.4008H11.4109V4.05078C10.2409 4.93078 9.28094 6.05078 8.60094 7.34078Z" fill="#1B1D1F"/>
<path d="M8.48922 16.4416C9.17922 17.8216 10.1792 19.0216 11.3992 19.9516V12.6016H7.44922C7.52922 13.9316 7.87922 15.2216 8.47922 16.4416H8.48922Z" fill="#1B1D1F"/>
<path d="M15.5098 16.4416C16.1198 15.2216 16.4598 13.9316 16.5398 12.6016H12.5898V19.9516C13.8198 19.0216 14.8098 17.8216 15.4998 16.4416H15.5098Z" fill="#1B1D1F"/>
</svg>
