<svg width="32" height="32" viewBox="0 0 32 32" fill="none" xmlns="http://www.w3.org/2000/svg">
<g clip-path="url(#clip0_40005178_34457)">
<path d="M12.6816 10.9393H15.76C16.5976 10.9393 17.276 10.2609 17.276 9.42332V7.26172L12.6816 10.9393Z" fill="#E68E51"/>
<path d="M7.40978 6.0288C5.68818 6.96 4.90978 7.8 4.41538 9.2536C3.20658 12.8088 2.04178 21.6808 2.00098 25.168C1.96018 28.6552 4.47458 29.8008 7.41618 29.8008C10.3578 29.8008 23.7162 29.8264 26.4154 29.8264C28.885 29.8264 30.001 28.6736 30.001 25.8672C30.001 19.816 26.2962 15.064 20.6026 15.064C14.909 15.064 9.86818 21.292 9.86818 21.292L10.345 11.7352C10.3674 11.2888 10.7362 10.9376 11.1826 10.9376H12.6826L17.425 7.856C18.1794 7.3656 18.3818 6.3504 17.8722 5.6088L16.0714 2.9856C15.609 2.312 14.7186 2.0928 13.9994 2.4792C12.1114 3.4944 8.63858 5.3624 7.40978 6.0272V6.0288Z" fill="#FFCCA8"/>
</g>
<defs>
<clipPath id="clip0_40005178_34457">
<rect width="32" height="32" fill="white"/>
</clipPath>
</defs>
</svg>
