<svg width="18" height="18" viewBox="0 0 18 18" fill="none" xmlns="http://www.w3.org/2000/svg">
<path d="M13.4598 3.71C14.2098 5.14 14.6498 6.72 14.7398 8.33H17.9998C17.8498 6 16.8198 3.92 15.2298 2.4C13.8998 1.13 12.1798 0.27 10.2798 0C11.5998 0.99 12.6998 2.26 13.4698 3.71H13.4598Z" fill="#1B1D1F"/>
<path d="M3.25977 8.33C3.34977 6.72 3.77977 5.14 4.53977 3.71C5.30977 2.25 6.39977 0.99 7.72977 0C5.81977 0.27 4.09977 1.13 2.77977 2.4C1.18977 3.92 0.159766 6 0.00976562 8.33H3.26977H3.25977Z" fill="#1B1D1F"/>
<path d="M14.74 9.53125C14.66 11.0512 14.27 12.5212 13.58 13.9112C12.8 15.4712 11.66 16.8212 10.27 17.8612C12.25 17.5813 14.03 16.6712 15.38 15.3212C16.88 13.8212 17.85 11.7912 18 9.53125H14.74Z" fill="#1B1D1F"/>
<path d="M4.42 13.9034C3.73 12.5134 3.34 11.0434 3.26 9.52344H0C0.15 11.7734 1.11 13.8134 2.62 15.3134C3.97 16.6634 5.75 17.5734 7.73 17.8534C6.34 16.8134 5.2 15.4634 4.42 13.9034Z" fill="#1B1D1F"/>
<path d="M12.4101 4.26656C11.7301 2.97656 10.7701 1.85656 9.6001 0.976562V8.32656H13.5501C13.4701 6.90656 13.0801 5.54656 12.4101 4.26656Z" fill="#1B1D1F"/>
<path d="M5.59996 4.26656C4.92996 5.53656 4.54996 6.90656 4.45996 8.32656H8.40996V0.976562C7.23996 1.85656 6.27996 2.97656 5.59996 4.26656Z" fill="#1B1D1F"/>
<path d="M5.49019 13.3713C6.18019 14.7513 7.1802 15.9513 8.4002 16.8813V9.53125H4.4502C4.5302 10.8613 4.88019 12.1513 5.48019 13.3713H5.49019Z" fill="#1B1D1F"/>
<path d="M12.5098 13.3713C13.1198 12.1513 13.4598 10.8613 13.5398 9.53125H9.58984V16.8813C10.8198 15.9513 11.8098 14.7513 12.4998 13.3713H12.5098Z" fill="#1B1D1F"/>
</svg>
