<svg width="24" height="24" viewBox="0 0 24 24" fill="none" xmlns="http://www.w3.org/2000/svg">
<path d="M0 4C0 1.79086 1.79086 0 4 0H20C22.2091 0 24 1.79086 24 4V20C24 22.2091 22.2091 24 20 24H4C1.79086 24 0 22.2091 0 20V4Z" fill="#34AEE7"/>
<g clip-path="url(#clip0_40005525_6329)">
<path d="M11.8023 8.70898C13.3749 8.70949 14.637 9.94305 14.6334 11.4753C14.6293 12.993 13.3682 14.2175 11.8065 14.219C10.2391 14.221 8.96145 12.9753 8.97075 11.4536C8.97902 9.936 10.2452 8.70898 11.8023 8.70898ZM10.3961 11.4667C10.3961 12.2213 11.03 12.8464 11.7982 12.8504C12.5731 12.8544 13.2292 12.2107 13.2205 11.4557C13.2112 10.7041 12.569 10.0846 11.8003 10.0861C11.0305 10.0881 10.3956 10.7122 10.3961 11.4667Z" fill="#FCFDFE"/>
<path d="M11.9952 18.4955C10.5838 18.4955 9.17185 18.492 7.76045 18.4995C7.56362 18.5005 7.49749 18.4577 7.50007 18.2532C7.51195 17.2967 7.50885 16.3402 7.50214 15.3831C7.50111 15.2235 7.54089 15.162 7.7155 15.1686C8.05079 15.1812 8.38711 15.1812 8.72239 15.1686C8.89907 15.162 8.96107 15.2079 8.9559 15.3897C8.94299 15.8591 8.96365 16.3301 8.9466 16.799C8.93834 17.0237 8.99671 17.0922 9.23901 17.0912C11.554 17.0816 13.8695 17.0892 16.1849 17.0796C16.4283 17.0786 16.5197 17.1275 16.4975 17.3783C16.4727 17.6614 16.4779 17.9495 16.4965 18.2336C16.5099 18.4396 16.4505 18.5021 16.2304 18.5005C14.9311 18.49 13.6313 18.4955 12.3315 18.4955C12.2189 18.4955 12.1068 18.4955 11.9952 18.4955Z" fill="#FEFEFE"/>
<path d="M11.9956 8.42433C10.6886 8.42433 9.38206 8.41879 8.07502 8.42987C7.8539 8.43188 7.79863 8.36691 7.80999 8.16241C7.82756 7.85313 7.82549 7.54185 7.81051 7.23257C7.80173 7.05175 7.8663 7.00994 8.04299 7.01145C9.01423 7.01951 9.98599 7.00893 10.9577 7.02001C11.1716 7.02253 11.2388 6.96914 11.2279 6.75759C11.2093 6.39794 11.2274 6.03679 11.2207 5.67664C11.2181 5.5482 11.2569 5.49934 11.3948 5.50186C11.7559 5.50992 12.117 5.51345 12.4781 5.50035C12.6507 5.4943 12.675 5.56684 12.6714 5.70787C12.6636 6.0514 12.6817 6.39593 12.6641 6.73844C12.6533 6.9505 12.7018 7.02404 12.941 7.02052C13.9381 7.00541 14.9357 7.02052 15.9328 7.00893C16.1436 7.00641 16.1937 7.07189 16.1849 7.2633C16.1704 7.57257 16.1704 7.88436 16.188 8.19313C16.1993 8.38706 16.1296 8.42886 15.9416 8.42786C14.6262 8.4208 13.3109 8.42433 11.9956 8.42433Z" fill="#FEFEFE"/>
<path d="M12.891 15.5336C12.8962 16.0847 12.4545 16.5274 11.8914 16.536C11.3117 16.5451 10.8504 16.1109 10.8457 15.5523C10.8411 14.9927 11.2983 14.5449 11.8723 14.5469C12.4359 14.5489 12.8859 14.9846 12.891 15.5336Z" fill="#FCFDFE"/>
</g>
<defs>
<clipPath id="clip0_40005525_6329">
<rect width="9" height="13" fill="white" transform="translate(7.5 5.5)"/>
</clipPath>
</defs>
</svg>
