<svg width="32" height="32" viewBox="0 0 32 32" fill="none" xmlns="http://www.w3.org/2000/svg">
<g clip-path="url(#clip0_40005073_22164)">
<path d="M10.011 24.543C9.98859 24.5446 9.96939 24.5558 9.94699 24.5558H6.66459C6.64219 24.5558 6.62299 24.5446 6.60059 24.543V26.2262H10.011V24.543Z" fill="#8595AA"/>
<path d="M24.6926 24.5557H21.2822V26.2261H24.6926V24.5557Z" fill="#8595AA"/>
<path d="M28.4002 26.2266H3.6002C2.2746 26.2266 1.2002 27.301 1.2002 28.6266V28.9162C1.2002 29.137 1.3794 29.3162 1.6002 29.3162H30.4002C30.621 29.3162 30.8002 29.137 30.8002 28.9162V28.6266C30.8002 27.301 29.7258 26.2266 28.4002 26.2266Z" fill="#ABB7C7"/>
<path d="M11.8995 20.3809C14.6123 21.9473 17.6899 22.7721 20.8227 22.7721H27.8283V18.7953C27.8283 16.8241 26.2307 15.2265 24.2595 15.2265C23.2099 15.2265 22.2091 15.0297 21.2787 14.6857C21.2355 14.8081 21.1723 14.9233 21.0747 15.0209L19.1027 16.9921C18.9283 17.1665 18.6995 17.2537 18.4715 17.2537C18.2435 17.2537 18.0147 17.1665 17.8403 16.9921C17.4915 16.6433 17.4915 16.0785 17.8403 15.7305L19.6755 13.8961C19.2371 13.6193 18.8267 13.3041 18.4459 12.9553C18.3779 13.0417 18.2947 13.1193 18.1939 13.1777L15.7787 14.5721C15.6379 14.6537 15.4851 14.6921 15.3331 14.6921C15.0243 14.6921 14.7251 14.5321 14.5595 14.2457C14.3123 13.8193 14.4595 13.2737 14.8859 13.0273L17.2787 11.6457C17.0147 11.2801 16.7795 10.8945 16.5747 10.4889C16.4907 10.5489 16.3979 10.6009 16.2923 10.6289L13.5995 11.3505C13.5219 11.3713 13.4443 11.3817 13.3675 11.3817C12.9739 11.3817 12.6139 11.1185 12.5067 10.7201C12.3787 10.2441 12.6611 9.75452 13.1371 9.62732L15.8299 8.90572C15.8747 8.89372 15.9179 8.90252 15.9619 8.89772C15.8371 8.44332 15.7403 7.97852 15.6907 7.49772C15.6747 7.49772 15.6619 7.50652 15.6459 7.50652H12.8579C12.3651 7.50652 11.9659 7.10732 11.9659 6.61452C11.9659 6.12172 12.3651 5.72252 12.8579 5.72252H15.6459V4.47132C15.6459 3.48572 14.8467 2.68652 13.8611 2.68652H7.55628C6.57068 2.68652 5.77148 3.48572 5.77148 4.47132V16.8449L11.8995 20.3825V20.3809Z" fill="#D0D6DE"/>
<path d="M27.8326 22.7678V23.6638C27.8326 24.1598 27.4326 24.5518 26.9366 24.5518H19.9286C16.8006 24.5518 13.7206 23.7278 11.0086 22.1678L10.8406 22.0798V23.6638C10.8406 24.1358 10.4726 24.5118 10.0086 24.5438C9.99256 24.5438 9.96855 24.5518 9.94455 24.5518H6.66455C6.64055 24.5518 6.62455 24.5438 6.60055 24.5438C6.13655 24.5118 5.76855 24.1358 5.76855 23.6638V16.8398L11.8966 20.3838C14.6166 21.9438 17.6886 22.7678 20.8246 22.7678H27.8326Z" fill="#4E5968"/>
<path d="M12.8578 5.71973C12.365 5.71973 11.9658 6.11893 11.9658 6.61173C11.9658 7.10453 12.365 7.50373 12.8578 7.50373H15.6458C15.6618 7.50373 15.6746 7.49573 15.6906 7.49493C16.1618 7.47013 16.5378 7.08853 16.5378 6.61173C16.5378 6.11893 16.1386 5.71973 15.6458 5.71973H12.8578Z" fill="#4E5968"/>
<path d="M13.1378 9.62581C12.6618 9.75301 12.3794 10.2426 12.5074 10.7186C12.6146 11.1178 12.9746 11.3802 13.3682 11.3802C13.445 11.3802 13.5226 11.3698 13.6002 11.349L16.293 10.6274C16.3986 10.5994 16.4906 10.5474 16.5754 10.4874C16.8706 10.2778 17.0234 9.90501 16.9234 9.53461C16.8082 9.10261 16.393 8.84741 15.9626 8.89541C15.9186 8.90021 15.8746 8.89141 15.8306 8.90341L13.1378 9.62581Z" fill="#4E5968"/>
<path d="M14.8859 13.0263C14.4595 13.2727 14.3123 13.8183 14.5595 14.2447C14.7251 14.5311 15.0243 14.6911 15.3331 14.6911C15.4843 14.6911 15.6379 14.6527 15.7787 14.5711L18.1939 13.1767C18.2955 13.1183 18.3779 13.0407 18.4459 12.9543C18.6651 12.6759 18.7083 12.2831 18.5203 11.9583C18.2731 11.5311 17.7283 11.3847 17.3019 11.6319L17.2795 11.6447L14.8859 13.0263Z" fill="#4E5968"/>
<path d="M17.8407 15.7299C17.4919 16.0787 17.4919 16.6435 17.8407 16.9915C18.0151 17.1659 18.2439 17.2531 18.4719 17.2531C18.6999 17.2531 18.9287 17.1659 19.1031 16.9915L21.0751 15.0203C21.1727 14.9227 21.2359 14.8067 21.2791 14.6851C21.3895 14.3715 21.3263 14.0099 21.0751 13.7587C20.7263 13.4099 20.1607 13.4099 19.8127 13.7587L19.6759 13.8955L17.8407 15.7299Z" fill="#4E5968"/>
</g>
<defs>
<clipPath id="clip0_40005073_22164">
<rect width="32" height="32" fill="white"/>
</clipPath>
</defs>
</svg>
