<svg width="28" height="28" viewBox="0 0 28 28" fill="none" xmlns="http://www.w3.org/2000/svg">
<path d="M0 4.66667C0 2.08934 2.08934 0 4.66667 0H23.3333C25.9107 0 28 2.08934 28 4.66667V23.3333C28 25.9107 25.9107 28 23.3333 28H4.66667C2.08934 28 0 25.9107 0 23.3333V4.66667Z" fill="#FAE100"/>
<path d="M13.9997 5.72209C8.99298 5.72209 4.93652 8.91063 4.93652 12.8471C4.93652 15.4076 6.65614 17.6541 9.237 18.9101C9.04753 19.6124 8.55088 21.4592 8.4504 21.8532C8.32695 22.3442 8.63126 22.3356 8.82935 22.2043C8.98437 22.1015 11.3126 20.5258 12.3174 19.8464C12.8628 19.9264 13.4255 19.9692 13.9997 19.9692C19.0064 19.9692 23.0628 16.7806 23.0628 12.8442C23.0628 8.90777 19.0064 5.71924 13.9997 5.71924" fill="#371C1D"/>
</svg>
