<svg width="16" height="16" viewBox="0 0 16 16" fill="none" xmlns="http://www.w3.org/2000/svg">
<path d="M15.2282 6.37213C15.1032 6.24715 14.9337 6.17694 14.7569 6.17694C14.5801 6.17694 14.4106 6.24715 14.2856 6.37213L7.02424 13.6648C6.71471 13.9744 6.34724 14.2199 5.94281 14.3875C5.53838 14.555 5.10491 14.6413 4.66714 14.6413C3.78303 14.6414 2.93511 14.2902 2.3099 13.6651C1.6847 13.04 1.33343 12.1921 1.33337 11.308C1.33331 10.4239 1.68446 9.576 2.30957 8.9508L9.34224 1.88946C9.7183 1.51939 10.2254 1.31291 10.753 1.31499C11.2806 1.31708 11.786 1.52757 12.1591 1.9006C12.5322 2.27363 12.7428 2.77899 12.745 3.3066C12.7473 3.83421 12.5409 4.34132 12.1709 4.71746L5.13824 11.7788C5.01141 11.9003 4.84255 11.9681 4.6669 11.9681C4.49126 11.9681 4.3224 11.9003 4.19557 11.7788C4.07059 11.6538 4.00038 11.4842 4.00038 11.3075C4.00038 11.1307 4.07059 10.9611 4.19557 10.8361L10.4569 4.54613C10.5783 4.42039 10.6455 4.25199 10.644 4.07719C10.6425 3.9024 10.5724 3.73519 10.4488 3.61158C10.3252 3.48798 10.158 3.41787 9.98317 3.41635C9.80837 3.41483 9.63997 3.48202 9.51424 3.60346L3.2529 9.89346C3.06715 10.0792 2.9198 10.2997 2.81927 10.5424C2.71874 10.785 2.667 11.0451 2.667 11.3078C2.667 11.5705 2.71874 11.8306 2.81927 12.0732C2.9198 12.3159 3.06715 12.5364 3.2529 12.7221C3.63398 13.0858 4.14049 13.2887 4.66724 13.2887C5.19398 13.2887 5.70049 13.0858 6.08157 12.7221L13.1136 5.66013C13.7256 5.03233 14.0656 4.1887 14.06 3.31198C14.0544 2.43526 13.7036 1.59605 13.0836 0.976144C12.4636 0.35624 11.6243 0.00555883 10.7476 6.55182e-05C9.87087 -0.00542779 9.02728 0.334709 8.39957 0.946795L1.3669 8.00813C0.49169 8.88334 -1.30417e-08 10.0704 0 11.3081C1.30417e-08 12.5459 0.49169 13.7329 1.3669 14.6081C2.24212 15.4833 3.42916 15.975 4.6669 15.975C5.90464 15.975 7.09169 15.4833 7.9669 14.6081L15.2282 7.31746C15.2905 7.25551 15.3399 7.18186 15.3737 7.10074C15.4074 7.01963 15.4248 6.93264 15.4248 6.8448C15.4248 6.75695 15.4074 6.66996 15.3737 6.58885C15.3399 6.50773 15.2905 6.43408 15.2282 6.37213V6.37213Z" fill="#454C53"/>
</svg>
