<svg width="220" height="220" viewBox="0 0 220 220" fill="none" xmlns="http://www.w3.org/2000/svg">
<g clip-path="url(#clip0_40005786_62800)">
<path d="M0 18.1818C0 8.14028 8.14028 0 18.1818 0H201.818C211.86 0 220 8.14028 220 18.1818V201.818C220 211.86 211.86 220 201.818 220H18.1818C8.14028 220 0 211.86 0 201.818V18.1818Z" fill="url(#paint0_radial_40005786_62800)"/>
<path d="M223.818 184.362C223.818 216.362 198.363 250.18 151.091 250.18H68.9089C21.6362 250.18 -3.81836 231.998 -3.81836 184.726V176.726H63.4544V181.089C63.4544 204.726 80.5453 221.816 104.182 221.816H116.182C139.454 221.816 156.909 205.453 156.909 182.907V135.998C156.909 111.635 139.818 95.271 116.182 95.271H104.182C80.5453 95.271 63.0907 113.816 63.0907 128.726V137.089H0.908914L-3.81836 137.453L-2.36381 137.089H-3.81836V-30.1836H216.182V-2.54722H63.0907V85.8164C72.1816 70.9073 93.9998 63.9982 108.545 63.9982H151.091C198.363 63.9982 223.818 89.0892 223.818 139.635V184.362Z" fill="white"/>
</g>
<defs>
<radialGradient id="paint0_radial_40005786_62800" cx="0" cy="0" r="1" gradientUnits="userSpaceOnUse" gradientTransform="translate(110 110) rotate(90) scale(110)">
<stop stop-color="#ADCBFF"/>
<stop offset="1" stop-color="#F7F8F9"/>
</radialGradient>
<clipPath id="clip0_40005786_62800">
<path d="M0 18.1818C0 8.14028 8.14028 0 18.1818 0H201.818C211.86 0 220 8.14028 220 18.1818V201.818C220 211.86 211.86 220 201.818 220H18.1818C8.14028 220 0 211.86 0 201.818V18.1818Z" fill="white"/>
</clipPath>
</defs>
</svg>
