<svg width="220" height="220" viewBox="0 0 220 220" fill="none" xmlns="http://www.w3.org/2000/svg">
<g clip-path="url(#clip0_40005786_62790)">
<path d="M0 18.1818C0 8.14028 8.14028 0 18.1818 0H201.818C211.86 0 220 8.14028 220 18.1818V201.818C220 211.86 211.86 220 201.818 220H18.1818C8.14028 220 0 211.86 0 201.818V18.1818Z" fill="url(#paint0_radial_40005786_62790)"/>
<path d="M131.818 28.5444H199.091V169.272H231.455V201.999H199.091V248.908H131.818V201.999L-11.4546 202.363V169.635L22.7272 -0.546515C26.7272 -20.1829 39.8181 -28.5465 59.0909 -28.5465L200.182 -28.9102V-0.182884H94.3636C87.8182 -0.182884 83.0909 3.08985 82 9.6353L56.1818 169.635L131.818 169.272V28.5444Z" fill="white"/>
</g>
<defs>
<radialGradient id="paint0_radial_40005786_62790" cx="0" cy="0" r="1" gradientUnits="userSpaceOnUse" gradientTransform="translate(110 110) rotate(90) scale(110)">
<stop stop-color="#ADCBFF"/>
<stop offset="1" stop-color="#F7F8F9"/>
</radialGradient>
<clipPath id="clip0_40005786_62790">
<path d="M0 18.1818C0 8.14028 8.14028 0 18.1818 0H201.818C211.86 0 220 8.14028 220 18.1818V201.818C220 211.86 211.86 220 201.818 220H18.1818C8.14028 220 0 211.86 0 201.818V18.1818Z" fill="white"/>
</clipPath>
</defs>
</svg>
