<svg width="220" height="220" viewBox="0 0 220 220" fill="none" xmlns="http://www.w3.org/2000/svg">
<g clip-path="url(#clip0_40005786_62770)">
<path d="M0 18.1818C0 8.14028 8.14028 0 18.1818 0H201.818C211.86 0 220 8.14028 220 18.1818V201.818C220 211.86 211.86 220 201.818 220H18.1818C8.14028 220 0 211.86 0 201.818V18.1818Z" fill="url(#paint0_radial_40005786_62770)"/>
<path d="M154.727 38.9073C154.727 14.5437 137.273 -1.81995 114 -1.81995H102C78.3636 -1.81995 61.2727 15.271 61.2727 38.9073V51.9982H-6V42.5437C-6 -4.72905 19.4546 -30.1836 66.7273 -30.1836H148.909C196.182 -30.1836 221.636 -5.09269 221.636 42.5437V64.7255C221.636 163.998 62.7273 117.816 62.7273 192.726V221.816H226V250.18H-4.54545V206.544C-4.54545 92.7255 154.727 127.635 154.727 71.271V38.9073Z" fill="white"/>
</g>
<defs>
<radialGradient id="paint0_radial_40005786_62770" cx="0" cy="0" r="1" gradientUnits="userSpaceOnUse" gradientTransform="translate(110 110) rotate(90) scale(110)">
<stop stop-color="#ADCBFF"/>
<stop offset="1" stop-color="#F7F8F9"/>
</radialGradient>
<clipPath id="clip0_40005786_62770">
<path d="M0 18.1818C0 8.14028 8.14028 0 18.1818 0H201.818C211.86 0 220 8.14028 220 18.1818V201.818C220 211.86 211.86 220 201.818 220H18.1818C8.14028 220 0 211.86 0 201.818V18.1818Z" fill="white"/>
</clipPath>
</defs>
</svg>
