<svg width="220" height="220" viewBox="0 0 220 220" fill="none" xmlns="http://www.w3.org/2000/svg">
<g clip-path="url(#clip0_40005786_62760)">
<path d="M0 18.1818C0 8.14028 8.14028 0 18.1818 0H201.818C211.86 0 220 8.14028 220 18.1818V201.818C220 211.86 211.86 220 201.818 220H18.1818C8.14028 220 0 211.86 0 201.818V18.1818Z" fill="url(#paint0_radial_40005786_62760)"/>
<path d="M158.727 -28.9102V219.817H194.364V248.908H25.6362V219.817H91.4544V0.180748H37.6362V-28.9102H158.727Z" fill="white"/>
</g>
<defs>
<radialGradient id="paint0_radial_40005786_62760" cx="0" cy="0" r="1" gradientUnits="userSpaceOnUse" gradientTransform="translate(110 110) rotate(90) scale(110)">
<stop stop-color="#ADCBFF"/>
<stop offset="1" stop-color="#F7F8F9"/>
</radialGradient>
<clipPath id="clip0_40005786_62760">
<path d="M0 18.1818C0 8.14028 8.14028 0 18.1818 0H201.818C211.86 0 220 8.14028 220 18.1818V201.818C220 211.86 211.86 220 201.818 220H18.1818C8.14028 220 0 211.86 0 201.818V18.1818Z" fill="white"/>
</clipPath>
</defs>
</svg>
