<svg width="220" height="220" viewBox="0 0 220 220" fill="none" xmlns="http://www.w3.org/2000/svg">
<g clip-path="url(#clip0_40005786_62780)">
<path d="M0 18.1818C0 8.14028 8.14028 0 18.1818 0H201.818C211.86 0 220 8.14028 220 18.1818V201.818C220 211.86 211.86 220 201.818 220H18.1818C8.14028 220 0 211.86 0 201.818V18.1818Z" fill="url(#paint0_radial_40005786_62780)"/>
<path d="M156.909 37.4542C156.909 13.0906 139.818 -3.27308 116.182 -3.27308H104.182C80.5453 -3.27308 63.4544 13.8178 63.4544 37.4542V50.5451H-3.81836V41.0906C-3.81836 -6.18218 21.6362 -31.6367 68.9089 -31.6367H151.091C198.363 -31.6367 223.818 -6.54581 223.818 41.0906V53.4542C223.818 74.5451 214.363 97.0906 196.545 111.272C212.182 120.727 223.818 136.363 223.818 161.818V184.727C223.818 217.091 199.091 251.636 151.091 251.636H68.9089C21.6362 251.636 -3.81836 226.181 -3.81836 178.909V167.272H63.4544V182.545C63.4544 206.181 80.5453 223.272 104.182 223.272H116.182C139.454 223.272 156.909 206.909 156.909 184.363V163.272C156.909 139.636 139.818 128 116.182 128H89.6362V97.8178H116.182C139.818 97.8178 156.909 80.7269 156.909 57.0906V37.4542Z" fill="white"/>
</g>
<defs>
<radialGradient id="paint0_radial_40005786_62780" cx="0" cy="0" r="1" gradientUnits="userSpaceOnUse" gradientTransform="translate(110 110) rotate(90) scale(110)">
<stop stop-color="#ADCBFF"/>
<stop offset="1" stop-color="#F7F8F9"/>
</radialGradient>
<clipPath id="clip0_40005786_62780">
<path d="M0 18.1818C0 8.14028 8.14028 0 18.1818 0H201.818C211.86 0 220 8.14028 220 18.1818V201.818C220 211.86 211.86 220 201.818 220H18.1818C8.14028 220 0 211.86 0 201.818V18.1818Z" fill="white"/>
</clipPath>
</defs>
</svg>
