<svg width="24" height="24" viewBox="0 0 24 24" fill="none" xmlns="http://www.w3.org/2000/svg">
<path d="M0 4C0 1.79086 1.79086 0 4 0H20C22.2091 0 24 1.79086 24 4V20C24 22.2091 22.2091 24 20 24H4C1.79086 24 0 22.2091 0 20V4Z" fill="#B30B00"/>
<path d="M3.4082 16V8.92969H6.41602C7.99805 8.92969 9.0332 9.9209 9.0332 11.4102C9.0332 12.9238 7.96875 13.876 6.35742 13.8711H5.26367V16H3.4082ZM5.26367 12.4258H5.98633C6.68457 12.4209 7.09473 12.0303 7.08984 11.4102C7.09473 10.7949 6.68457 10.4189 5.98633 10.4141H5.26367V12.4258ZM11.9512 16H9.26562V8.92969H11.9316C14.1094 8.92969 15.4668 10.2529 15.4668 12.4648C15.4668 14.6719 14.1094 16 11.9512 16ZM11.1211 14.418H11.8828C12.9717 14.418 13.5918 13.9541 13.5918 12.4648C13.5918 10.9707 12.9717 10.5117 11.834 10.5117H11.1211V14.418ZM15.875 16V8.92969H20.8066V10.4336H17.7305V11.7129H20.4941V13.2168H17.7305V16H15.875Z" fill="white"/>
</svg>
