<svg width="24" height="24" viewBox="0 0 24 24" fill="none" xmlns="http://www.w3.org/2000/svg">
<path d="M14.83 14.4717C14.03 15.2717 12.73 15.2717 11.94 14.4717L9.53 12.0617C8.73 11.2617 8.73 9.96172 9.53 9.17172C10.61 8.09172 10.61 6.33172 9.53 5.25172L7.68 3.40172C7.16 2.88172 6.31 2.88172 5.78 3.40172L5.01 4.17172C2.33 6.85172 2.33 11.2517 5.01 13.9317L10.07 18.9917C12.75 21.6717 17.15 21.6717 19.83 18.9917L20.6 18.2217C21.12 17.7017 21.12 16.8517 20.6 16.3217L18.75 14.4717C17.67 13.3917 15.91 13.3917 14.83 14.4717Z" fill="#1B1D1F"/>
</svg>
