<svg width="16" height="21" viewBox="0 0 16 21" fill="none" xmlns="http://www.w3.org/2000/svg">
<path d="M7.65006 20.3894C7.65006 20.3894 7.69006 20.4094 7.65006 20.3594C7.61006 20.4094 7.60006 20.4194 7.65006 20.3894Z" fill="#9EA4AA"/>
<path d="M7.65 0.00999999C3.43 0.00999999 0 3.5 0 7.81C0 9.26 0.23 10.04 0.61 11.27C1.74 14.93 7.17 19.88 7.65 20.4C8.13 19.87 13.55 14.93 14.68 11.28C15.07 10.04 15.3 9.25 15.3 7.8C15.3 3.49 11.88 0 7.65 0V0.00999999ZM7.65 11.23C5.54 11.23 3.83 9.52 3.83 7.41C3.83 5.3 5.54 3.59 7.65 3.59C9.76 3.59 11.47 5.3 11.47 7.41C11.47 9.52 9.76 11.23 7.65 11.23Z" fill="#9EA4AA"/>
</svg>
