<svg width="24" height="22" viewBox="0 0 24 22" fill="none" xmlns="http://www.w3.org/2000/svg">
<g clip-path="url(#clip0_40005525_6477)">
<path d="M14.511 12.1L12.8366 0H12.7116C6.62298 0.0175162 1.6916 4.87698 1.67383 10.8768V11L14.511 12.1Z" fill="#ED6C47"/>
<path d="M12.9629 0H12.8379V11L18.4193 13.2L24.0007 11V10.8768C23.9829 4.87698 19.0515 0.0175162 12.9629 0Z" fill="#FF8F6B"/>
<path d="M23.9994 11V11.121C23.9819 17.1222 19.0494 21.9828 12.9594 22H12.7138C6.62386 21.9828 1.6913 17.1222 1.67383 11.121V11H23.9994Z" fill="#D35230"/>
<path opacity="0.1" d="M13.3948 5.4069V17.1439C13.392 17.5517 13.1412 17.9181 12.7585 18.0734C12.6366 18.1242 12.5057 18.1504 12.3734 18.1504H4.30826C4.15198 17.9744 4.00129 17.7874 3.86175 17.6004C2.43977 15.7311 1.67199 13.4575 1.67384 11.1214V10.8794C1.67058 8.77224 2.29552 6.71057 3.47105 4.95039C3.59384 4.76339 3.72221 4.57639 3.86175 4.40039H12.3734C12.9357 4.40459 13.3905 4.85277 13.3948 5.4069Z" fill="black"/>
<path opacity="0.2" d="M12.8366 5.95572V17.6927C12.8366 17.8231 12.81 17.9521 12.7585 18.0722C12.6009 18.4493 12.2291 18.6965 11.8152 18.6992H4.81617C4.63958 18.5226 4.47014 18.3391 4.30826 18.1492C4.15198 17.9732 4.00129 17.7862 3.86175 17.5992C2.43977 15.73 1.67199 13.4564 1.67384 11.1202V10.8782C1.67058 8.77107 2.29552 6.70939 3.47105 4.94922H11.8152C12.3776 4.95341 12.8324 5.40159 12.8366 5.95572Z" fill="black"/>
<path opacity="0.2" d="M12.8366 5.95571V16.5927C12.8324 17.1468 12.3776 17.595 11.8152 17.5992H3.86175C2.43977 15.73 1.67199 13.4564 1.67384 11.1202V10.8782C1.67058 8.77107 2.29552 6.70939 3.47105 4.94922H11.8152C12.3776 4.95339 12.8324 5.40157 12.8366 5.95571Z" fill="black"/>
<path opacity="0.2" d="M12.2785 5.95571V16.5927C12.2742 17.1468 11.8194 17.595 11.2571 17.5992H3.86175C2.43977 15.73 1.67199 13.4564 1.67384 11.1202V10.8782C1.67058 8.77107 2.29552 6.70939 3.47105 4.94922H11.2571C11.8194 4.95339 12.2742 5.40157 12.2785 5.95571Z" fill="black"/>
<path d="M1.02306 4.94922H11.256C11.821 4.94922 12.2791 5.40059 12.2791 5.95736V16.0411C12.2791 16.5978 11.821 17.0492 11.256 17.0492H1.02306C0.458049 17.0492 0 16.5978 0 16.0411V5.95736C0 5.40059 0.458049 4.94922 1.02306 4.94922Z" fill="url(#paint0_linear_40005525_6477)"/>
<path d="M6.25079 7.6391C6.91692 7.59481 7.57731 7.78548 8.11386 8.17701C8.33472 8.37131 8.50788 8.61255 8.62023 8.88248C8.73259 9.15241 8.78121 9.44398 8.76241 9.73515C8.76972 10.1453 8.65883 10.549 8.44261 10.8995C8.2237 11.244 7.90831 11.5186 7.53451 11.6904C7.10716 11.8863 6.63993 11.983 6.16873 11.9731H4.87441V14.3436H3.54883V7.6391H6.25079ZM4.8733 10.949H6.01414C6.37582 10.9752 6.73468 10.8697 7.02271 10.6526C7.14039 10.5413 7.23191 10.406 7.29083 10.2562C7.34975 10.1063 7.37463 9.94556 7.36373 9.78521C7.36373 9.04638 6.928 8.67696 6.05657 8.67696H4.87331V10.949H4.8733Z" fill="white"/>
</g>
<defs>
<linearGradient id="paint0_linear_40005525_6477" x1="2.13312" y1="4.16147" x2="9.97068" y2="17.9367" gradientUnits="userSpaceOnUse">
<stop stop-color="#CA4C28"/>
<stop offset="0.5" stop-color="#C5401E"/>
<stop offset="1" stop-color="#B62F14"/>
</linearGradient>
<clipPath id="clip0_40005525_6477">
<rect width="24" height="22" fill="white"/>
</clipPath>
</defs>
</svg>
