<svg width="423" height="88" viewBox="0 0 423 88" fill="none" xmlns="http://www.w3.org/2000/svg">
<path d="M47.5468 58.4075C46.0757 59.665 44.2685 60.278 42.4676 60.278C40.2609 60.278 38.0669 59.349 36.526 57.5481C33.7169 54.2811 34.1038 49.3585 37.3884 46.5655L40.7111 43.7345L37.3884 40.9036C34.1101 38.1105 33.7233 33.1943 36.5324 29.921C39.3415 26.654 44.2748 26.2685 47.5532 29.0616L63.0063 42.2306V25.4407C63.0063 23.8041 62.7971 23.4439 61.8332 22.5782C56.976 18.4771 50.692 16 43.8373 16C28.4602 16 16 28.417 16 43.7345C16 59.0521 28.4602 71.4754 43.8373 71.4754C50.6603 71.4754 56.9126 69.0173 61.7508 64.9541C62.7781 64.0441 63 63.7029 63 62.0283V45.2385L47.5468 58.4075Z" fill="#009FE3"/>
<path d="M81.2139 43.944H124.798V47.592H109.294V52.776H100.462V47.592H81.2139V43.944ZM82.8459 41.4L89.3739 29.928H83.1819V26.232H99.5499V23.064H107.902V26.232H124.366V29.928H120.718V41.4H111.502V29.928H101.806C99.7899 29.928 98.5899 30.744 97.5339 32.52L92.2539 41.4H82.8459ZM83.6139 58.056V49.8H92.3499V57.288H122.974V60.936H86.4939C84.6219 60.936 83.6139 59.928 83.6139 58.056ZM130.606 49.32H139.342V57.288H171.358V60.936H133.486C131.614 60.936 130.606 59.928 130.606 58.056V49.32ZM127.774 47.304L133.294 29.064L133.342 28.968H128.398V25.32H140.59V23.064H148.942V25.32H160.03V28.968H157.39V33.96H162.478V24.264H171.214V50.424H162.478V37.848H157.39V47.304H148.942V29.016H143.182C142.318 29.016 141.79 29.448 141.55 30.264L136.222 47.304H127.774ZM208.558 24.264H217.294V60.936H208.558V24.264ZM175.678 60.456L181.246 28.536C181.678 26.088 183.502 24.744 186.43 24.744H205.102V60.504H196.75V28.584H190.846C190.03 28.584 189.31 29.016 189.214 29.784L184.414 60.456H175.678ZM247.678 24.264H255.31V60.936H247.678V43.416L243.454 43.464V60.552H236.158V29.784H234.622C233.758 29.784 233.134 30.216 232.99 31.032L227.566 60.552H220.222L225.838 29.832V29.736H221.518V26.088H229.918V23.064H238.27V26.088H245.854V29.736H243.454V39.096L247.678 39.048V24.264ZM257.326 60.936V24.264H265.102V60.936H257.326ZM280.99 27.72C279.118 27.72 278.11 28.728 278.11 30.6V34.68C278.11 36.552 279.118 37.56 280.99 37.56H298.414C300.286 37.56 301.294 36.552 301.294 34.68V30.6C301.294 28.728 300.286 27.72 298.414 27.72H280.99ZM267.454 46.584V42.936H311.038V46.584H301.822V49.08H308.59V60.936H299.662V52.776H269.182V49.08H277.87V46.584H267.454ZM269.278 32.856V32.424C269.278 27.144 272.158 24.264 277.438 24.264H301.918C307.198 24.264 310.078 27.144 310.078 32.424V32.856C310.078 38.136 307.198 41.016 301.918 41.016H277.438C272.158 41.016 269.278 38.136 269.278 32.856ZM286.702 49.08H292.99V46.584H286.702V49.08ZM327.454 34.44C325.63 34.44 324.574 35.448 324.574 37.32L324.622 43.752C324.622 45.624 325.63 46.632 327.502 46.632H333.55C335.422 46.632 336.43 45.624 336.43 43.752L336.382 37.32C336.382 35.448 335.422 34.44 333.502 34.44H327.454ZM314.782 60.504V56.856H326.11L326.158 50.088H323.95C318.67 50.088 315.79 47.208 315.79 41.928V39.144C315.79 33.864 318.67 30.984 323.95 30.984H337.054C342.334 30.984 345.214 33.864 345.214 39.144V41.928C345.214 47.208 342.334 50.088 337.054 50.088H334.894L334.846 56.856H346.222V60.504H314.782ZM315.31 29.208V25.512H326.158V22.536H334.894V25.512H345.742V29.208H315.31ZM348.718 60.936V24.264H357.454V60.936H348.718ZM391.918 24.264H400.654V33.144H405.646V37.032H400.654V45.48H391.918V24.264ZM359.422 45.432L364.606 28.44V28.392H361.198V24.744H389.95V28.392H387.838V45.432H379.102V28.392H374.542C373.678 28.392 373.15 28.824 372.91 29.64L368.11 45.432H359.422ZM361.102 54.456C361.102 50.088 363.79 47.736 368.782 47.736H393.838C398.83 47.736 401.518 50.088 401.518 54.456C401.518 58.824 398.83 61.176 393.838 61.176H368.782C363.79 61.176 361.102 58.824 361.102 54.456ZM370.414 54.744C370.414 56.616 371.422 57.624 373.294 57.624H389.278C391.15 57.624 392.158 56.616 392.158 54.744V54.168C392.158 52.296 391.15 51.288 389.278 51.288H373.294C371.422 51.288 370.414 52.296 370.414 54.168V54.744Z" fill="#1B1D1F"/>
</svg>
