<svg width="32" height="32" viewBox="0 0 32 32" fill="none" xmlns="http://www.w3.org/2000/svg">
<g clip-path="url(#clip0_40005073_22126)">
<path d="M13.0967 22.5059L14.8383 20.5163C15.4079 19.9355 14.8935 20.5691 14.3143 19.9979L12.7447 18.4427C12.1655 17.8707 12.7919 17.3467 12.2207 17.9243L10.2575 19.6963L7.58954 17.0547C7.58954 17.0547 8.72954 20.8355 6.66394 22.9363L6.66554 22.9379L2.91434 26.3243C2.34474 26.9043 2.35114 27.8371 2.92794 28.4107L4.49914 29.9651C5.07674 30.5387 6.00794 30.5331 6.57834 29.9523L9.90794 26.1475L9.91274 26.1523C11.9783 24.0547 15.7639 25.1483 15.7639 25.1483L13.0951 22.5067L13.0967 22.5059Z" fill="#FFAD00"/>
<path d="M15.7658 25.1487C19.3226 26.8911 22.6698 25.1631 25.7706 22.0151C30.3346 17.3807 31.417 11.0319 26.4442 6.10705C21.4706 1.18385 15.153 2.34945 10.5898 6.98465C7.48984 10.1311 5.90184 13.5431 7.59144 17.0551L15.7658 25.1487Z" fill="#2F81F9"/>
<path d="M5.97344 8.1716C7.77407 7.95051 9.05401 6.30732 8.83227 4.50144C8.61054 2.69555 6.97109 1.41082 5.17047 1.63191C3.36985 1.853 2.08991 3.49619 2.31164 5.30207C2.53338 7.10796 4.17282 8.39269 5.97344 8.1716Z" fill="#E5E5E5"/>
</g>
<defs>
<clipPath id="clip0_40005073_22126">
<rect width="32" height="32" fill="white"/>
</clipPath>
</defs>
</svg>
