<svg width="32" height="32" viewBox="0 0 32 32" fill="none" xmlns="http://www.w3.org/2000/svg">
<rect width="32" height="32" rx="8" fill="url(#paint0_radial_40005436_1812)"/>
<rect x="18.8384" y="20.4727" width="2.31187" height="6.40223" rx="1" transform="rotate(-45 18.8384 20.4727)" fill="white"/>
<path d="M14.8799 7C19.2318 7.00002 22.7598 10.528 22.7598 14.8799C22.7597 19.2318 19.2318 22.7597 14.8799 22.7598C10.528 22.7598 7.00002 19.2318 7 14.8799C7 10.528 10.528 7 14.8799 7ZM14.9482 9.16797C11.7558 9.16801 9.16801 11.7558 9.16797 14.9482C9.16797 18.1408 11.7557 20.7285 14.9482 20.7285C18.1408 20.7285 20.7285 18.1408 20.7285 14.9482C20.7285 11.7557 18.1408 9.16797 14.9482 9.16797Z" fill="white"/>
<defs>
<radialGradient id="paint0_radial_40005436_1812" cx="0" cy="0" r="1" gradientUnits="userSpaceOnUse" gradientTransform="translate(16 16) rotate(90) scale(16)">
<stop stop-color="#4D8FFF"/>
<stop offset="0.649038" stop-color="#88B4FF"/>
</radialGradient>
</defs>
</svg>
