<svg width="24" height="24" viewBox="0 0 24 24" fill="none" xmlns="http://www.w3.org/2000/svg">
<path d="M19.1902 6.61L19.8702 5.93C20.3402 5.46 20.3402 4.69 19.8702 4.21C19.4002 3.74 18.6302 3.74 18.1502 4.21L17.4802 4.88C15.9602 3.71 14.0602 3 11.9902 3C9.92023 3 7.93023 3.73 6.40023 4.96L5.66023 4.22C5.19023 3.75 4.42023 3.75 3.94023 4.22C3.47023 4.69 3.47023 5.46 3.94023 5.94L4.72023 6.72C3.64023 8.21 2.99023 10.03 2.99023 12.01C2.99023 16.98 7.02023 21.01 11.9902 21.01C16.9602 21.01 20.9902 16.98 20.9902 12.01C20.9902 9.98 20.3102 8.12 19.1802 6.62L19.1902 6.61ZM15.5702 16.03C15.3302 16.26 15.0302 16.37 14.7302 16.37C14.4302 16.37 14.0902 16.25 13.8602 16L11.1302 13.16C10.9102 12.93 10.7902 12.63 10.7902 12.32V7.36C10.7902 6.69 11.3302 6.15 12.0002 6.15C12.6702 6.15 13.2102 6.69 13.2102 7.36V11.83L15.6002 14.32C16.0702 14.8 16.0502 15.57 15.5702 16.04V16.03Z" fill="#1B1D1F"/>
</svg>
