<svg width="22" height="14" viewBox="0 0 22 14" fill="none" xmlns="http://www.w3.org/2000/svg">
<path d="M19.2552 4.38597C20.7681 5.60446 20.7681 7.78924 19.2552 9.00773C17.295 10.5864 14.3249 12.3937 11.0002 12.3937C7.67541 12.3937 4.70536 10.5864 2.7452 9.00773C1.23228 7.78924 1.23228 5.60446 2.7452 4.38597C4.70536 2.80728 7.67541 1 11.0002 1C14.3249 1 17.295 2.80728 19.2552 4.38597Z" stroke="#72787F" stroke-width="2" stroke-linecap="round" stroke-linejoin="round"/>
<path d="M10.9997 9.90144C12.8419 9.90144 14.3353 8.46624 14.3353 6.69584C14.3353 4.92543 12.8419 3.49023 10.9997 3.49023C9.15746 3.49023 7.66406 4.92543 7.66406 6.69584C7.66406 8.46624 9.15746 9.90144 10.9997 9.90144Z" fill="white" stroke="#72787F" stroke-width="2" stroke-linecap="round" stroke-linejoin="round"/>
</svg>
