<svg width="24" height="22" viewBox="0 0 24 22" fill="none" xmlns="http://www.w3.org/2000/svg">
<g clip-path="url(#clip0_40005525_6380)">
<path d="M15.0704 11.5492L5.58203 13.1992V1.00737C5.58203 0.450581 6.04007 -0.000781059 6.6051 -0.000781059H22.9776C23.5426 -0.000781059 24.0006 0.450581 24.0006 1.00737V5.49922L15.0704 11.5492Z" fill="#185C37"/>
<path d="M15.0704 22H6.6051C6.04007 22 5.58203 21.5486 5.58203 20.9919V16.5L15.0704 11L20.0937 9.35L24.0006 11V16.5L15.0704 22Z" fill="#21A366"/>
<path d="M5.58203 16.5H15.0704V11H5.58203V16.5Z" fill="#107C41"/>
<path opacity="0.1" d="M12.3729 17.5996H5.58203V3.84961H12.3729C12.9372 3.85142 13.3942 4.30173 13.396 4.85776V16.5915C13.3942 17.1475 12.9372 17.5978 12.3729 17.5996Z" fill="black"/>
<path opacity="0.2" d="M11.8148 17.0508H5.58203V3.30078H11.8148C12.379 3.30259 12.836 3.7529 12.8378 4.30893V16.0426C12.836 16.5987 12.379 17.049 11.8148 17.0508Z" fill="black"/>
<path opacity="0.2" d="M11.8148 17.0508H5.58203V4.40078H11.8148C12.379 4.40259 12.836 4.8529 12.8378 5.40893V16.0426C12.836 16.5987 12.379 17.049 11.8148 17.0508Z" fill="black"/>
<path opacity="0.2" d="M11.2566 17.0508H5.58203V4.40078H11.2566C11.8209 4.40259 12.2779 4.8529 12.2797 5.40893V16.0426C12.2779 16.5987 11.8209 17.049 11.2566 17.0508Z" fill="black"/>
<path d="M1.02307 17.0508H11.256C11.821 17.0508 12.2791 16.5994 12.2791 16.0426V5.95894C12.2791 5.40215 11.821 4.95079 11.256 4.95079H1.02307C0.458041 4.95078 0 5.40214 0 5.95893V16.0426C0 16.5994 0.458041 17.0508 1.02307 17.0508Z" fill="url(#paint0_linear_40005525_6380)"/>
<path d="M3.16797 7.72299L5.32015 11.0092L3.34825 14.2773H4.93448L6.01057 12.1873C6.10993 11.9888 6.17801 11.8414 6.21486 11.744H6.22881C6.29837 11.9001 6.37282 12.054 6.45206 12.2055L7.60238 14.2762H9.05857L7.03643 11.0274L9.10993 7.723H7.56053L6.31755 10.017C6.259 10.1146 6.20932 10.2172 6.16909 10.3234H6.15068C6.11427 10.2193 6.06595 10.1197 6.00667 10.0264L4.72686 7.72299H3.16797Z" fill="white"/>
<path d="M22.9775 22H15.0703V16.5H24.0005V20.9919C24.0005 21.5486 23.5425 22 22.9775 22Z" fill="#33C481"/>
<path d="M15.0703 11H24.0005V5.5H15.0703V11Z" fill="#107C41"/>
</g>
<defs>
<linearGradient id="paint0_linear_40005525_6380" x1="2.13312" y1="17.8385" x2="9.97068" y2="4.06332" gradientUnits="userSpaceOnUse">
<stop stop-color="#18884F"/>
<stop offset="0.5" stop-color="#117E43"/>
<stop offset="1" stop-color="#0B6631"/>
</linearGradient>
<clipPath id="clip0_40005525_6380">
<rect width="24" height="22" fill="white" transform="matrix(1 0 0 -1 0 22)"/>
</clipPath>
</defs>
</svg>
