<svg width="22" height="19" viewBox="0 0 22 19" fill="none" xmlns="http://www.w3.org/2000/svg">
<path d="M0 4C0 1.79086 1.79086 0 4 0H10C12.2091 0 14 1.79086 14 4V8C14 10.2091 12.2091 12 10 12H4C1.79086 12 0 10.2091 0 8V4Z" fill="#FFA000"/>
<path d="M0 7C0 4.79086 1.79086 3 4 3H18C20.2091 3 22 4.79086 22 7V15C22 17.2091 20.2091 19 18 19H4C1.79086 19 0 17.2091 0 15V7Z" fill="#FFCA28"/>
<path d="M5 17.5C5 16.6716 5.67157 16 6.5 16H15.5C16.3284 16 17 16.6716 17 17.5C17 18.3284 16.3284 19 15.5 19H6.5C5.67157 19 5 18.3284 5 17.5Z" fill="#A47018"/>
</svg>
